<svg width="89" height="70" viewBox="0 0 89 70" fill="none" xmlns="http://www.w3.org/2000/svg">
<path d="M29.9492 67.2498C28.3692 66.8598 26.8892 66.2698 25.6792 65.1498C23.3492 62.9898 22.4092 60.3498 22.8992 57.1998C22.9192 57.0998 22.9192 56.9897 22.9492 56.8898C23.1192 56.3798 23.0192 56.2198 22.4292 56.3398C19.9992 56.8298 17.7192 56.3998 15.6692 54.9698C12.6092 52.8498 11.2692 48.9098 12.3992 45.3198C13.5192 41.7498 16.8292 39.3198 20.5592 39.2998C23.2692 39.2898 25.4692 40.3598 27.2492 42.3698C27.6792 42.8498 27.6792 43.4398 27.2692 43.8398C26.8092 44.2798 26.2392 44.2798 25.7592 43.7498C24.7292 42.5998 23.4992 41.7998 21.9692 41.4798C18.1592 40.6898 14.5092 43.3698 14.1092 47.2098C13.6892 51.1497 16.6292 54.4298 20.6792 54.4998C22.3392 54.5298 23.8392 53.9497 25.0592 52.7798C26.1892 51.6997 27.2992 50.5998 28.3792 49.4598C30.4292 47.2897 30.6292 43.9498 28.8792 41.5198C28.2292 40.6098 28.2392 40.2698 29.0692 39.5298C32.5892 36.3898 36.1092 33.2598 39.6492 30.1498C40.0792 29.7798 40.1792 29.5698 39.7092 29.1498C38.8692 28.3798 38.8892 28.3498 38.0992 29.1498C36.4092 30.8398 34.7192 32.5298 33.0292 34.2098C32.8492 34.3898 32.6592 34.5698 32.4392 34.6898C31.9992 34.9298 31.5692 34.8598 31.2292 34.4798C30.8992 34.1098 30.8592 33.6798 31.1492 33.2598C31.2792 33.0697 31.4492 32.9098 31.6192 32.7398C33.3992 30.9598 35.1692 29.1698 36.9692 27.4098C37.3692 27.0198 37.3992 26.7998 36.9792 26.4098C36.1592 25.6498 36.1792 25.6298 35.4092 26.4098C33.7192 28.0998 32.0292 29.7898 30.3392 31.4798C30.1792 31.6398 30.0092 31.8198 29.8192 31.9398C29.3992 32.2198 28.9692 32.1798 28.5992 31.8398C28.2292 31.4998 28.1692 31.0598 28.4092 30.6298C28.5292 30.4098 28.7192 30.2298 28.8892 30.0498C30.6992 28.2398 32.4992 26.4198 34.3192 24.6298C34.6592 24.2998 34.6792 24.1098 34.3192 23.7798C33.3192 22.8498 33.6092 22.8298 32.6492 23.7798C30.9792 25.4298 29.3292 27.0998 27.6692 28.7498C27.4892 28.9298 27.3092 29.1098 27.0992 29.2498C26.6692 29.5198 26.2392 29.4798 25.8792 29.1298C25.4992 28.7598 25.4392 28.3198 25.7292 27.8598C25.8592 27.6498 26.0492 27.4698 26.2292 27.2898C27.9892 25.5198 29.7492 23.7498 31.5292 21.9998C31.9092 21.6298 31.9892 21.3898 31.5492 20.9898C30.7492 20.2498 30.7792 20.2198 29.9792 21.0098C28.2892 22.6998 26.5992 24.3898 24.9092 26.0798C24.7292 26.2598 24.5392 26.4398 24.3292 26.5598C23.8892 26.7998 23.4592 26.7398 23.1192 26.3698C22.7792 25.9998 22.7392 25.5698 23.0192 25.1498C23.1492 24.9598 23.3192 24.7998 23.4892 24.6298C25.2792 22.8298 27.0692 21.0298 28.8792 19.2498C29.2192 18.9098 29.2892 18.7098 28.8992 18.3398C28.0392 17.5198 28.0592 17.4998 27.2392 18.3198C25.5692 19.9898 23.8892 21.6698 22.2192 23.3398C22.0592 23.4998 21.8892 23.6798 21.6992 23.7998C21.2792 24.0898 20.8492 24.0498 20.4792 23.7098C20.0992 23.3698 20.0492 22.9398 20.2792 22.4998C20.3992 22.2798 20.5792 22.0998 20.7592 21.9198C22.5492 20.1198 24.3392 18.3198 26.1492 16.5498C26.5092 16.1898 26.5792 15.9798 26.1692 15.6098C25.2192 14.7398 25.4892 14.6998 24.5392 15.6398C22.9092 17.2598 21.2792 18.8998 19.6492 20.5298C19.5092 20.6598 19.3792 20.7998 19.2392 20.9298C18.7192 21.3798 18.1092 21.3898 17.7092 20.9698C17.3092 20.5498 17.3192 19.9898 17.7992 19.4898C18.5592 18.6898 19.3492 17.9298 20.1192 17.1498C21.2092 16.0598 22.2892 14.9498 23.3992 13.8798C23.7792 13.5098 23.8692 13.2698 23.4292 12.8698C22.6292 12.1298 22.6492 12.0998 21.8592 12.8898C20.1892 14.5598 18.5092 16.2398 16.8392 17.9098C16.6592 18.0898 16.4792 18.2798 16.2692 18.4098C15.8192 18.6798 15.3692 18.6398 14.9992 18.2498C14.6392 17.8598 14.6192 17.4098 14.9392 16.9798C15.0592 16.8098 15.2192 16.6598 15.3692 16.5098C17.1492 14.7298 18.9192 12.9398 20.7092 11.1798C21.0892 10.8098 21.1792 10.5898 20.7392 10.1798C19.9092 9.40975 19.9392 9.38975 19.1192 10.1998C17.4492 11.8698 15.7692 13.5498 14.0992 15.2198C13.9392 15.3798 13.7692 15.5598 13.5792 15.6898C13.1292 15.9898 12.6892 15.9298 12.3092 15.5598C11.9492 15.1998 11.9292 14.7698 12.1692 14.3398C12.2792 14.1398 12.4592 13.9798 12.6292 13.8198C15.4092 11.0398 18.1892 8.25975 20.9692 5.47975C23.2192 3.23975 26.0492 3.23975 28.2992 5.49975C34.2792 11.4798 40.2592 17.4498 46.2292 23.4498C46.6392 23.8598 46.8792 23.9098 47.3492 23.5098C55.2192 16.7498 63.2192 10.1398 71.3292 3.65975C71.6092 3.43975 71.8792 3.19975 72.1692 2.97975C73.8892 1.65975 76.0292 2.20975 76.8892 4.17975C76.9292 4.27975 76.9692 4.36975 77.0092 4.46975V5.98975C76.7992 6.49975 76.5092 6.95975 76.1592 7.39975C69.5092 15.6698 62.7492 23.8498 55.8392 31.8998C55.4092 32.3998 55.4192 32.6498 55.8792 33.1098C61.8692 39.0698 67.8492 45.0597 73.8292 51.0298C74.3592 51.5597 74.8392 52.1098 75.1092 52.8198C75.9092 54.8798 75.4792 56.6798 73.9492 58.2298C70.9592 61.2498 67.9492 64.2498 64.9492 67.2598H63.9392C63.2292 66.4398 63.2392 66.0798 63.9892 65.3198C65.6792 63.6298 67.3692 61.9398 69.0592 60.2498C69.9192 59.3898 69.8992 59.4098 69.0692 58.5398C68.6992 58.1498 68.4892 58.2498 68.1592 58.5798C66.3792 60.3898 64.5792 62.1698 62.7792 63.9698C62.6192 64.1298 62.4492 64.3098 62.2592 64.4298C61.8392 64.7098 61.4092 64.6598 61.0392 64.3198C60.6692 63.9698 60.6092 63.5498 60.8592 63.1098C60.9792 62.8898 61.1692 62.7098 61.3492 62.5298C63.0392 60.8398 64.7292 59.1497 66.4192 57.4598C67.1992 56.6798 67.1792 56.6998 66.4292 55.8998C66.0692 55.5198 65.8392 55.5198 65.4692 55.8898C63.7092 57.6898 61.9192 59.4598 60.1392 61.2298C59.9592 61.4098 59.7792 61.5898 59.5692 61.7298C59.1392 61.9998 58.7092 61.9498 58.3492 61.6098C57.9792 61.2598 57.9392 60.8198 58.1792 60.3898C58.3092 60.1598 58.5092 59.9598 58.7092 59.7598C60.3692 58.0998 62.0292 56.4398 63.6792 54.7798C64.6092 53.8398 64.5792 54.1098 63.6992 53.1498C63.3692 52.7898 63.1592 52.7698 62.7992 53.1398C61.0292 54.9498 59.2192 56.7397 57.4292 58.5298C57.2392 58.7197 57.0292 58.9198 56.7992 59.0498C56.3592 59.2898 55.9292 59.2198 55.5892 58.8398C55.2592 58.4598 55.2192 58.0397 55.5092 57.6198C55.6392 57.4298 55.8092 57.2697 55.9792 57.0998C57.6392 55.4398 59.2992 53.7798 60.9592 52.1198C61.8192 51.2598 61.8092 51.2698 60.9692 50.4098C60.6392 50.0698 60.4492 50.0598 60.1092 50.3998C58.3292 52.2098 56.5292 53.9998 54.7392 55.7898C54.5792 55.9498 54.4092 56.1198 54.2292 56.2598C53.7892 56.5798 53.3492 56.5498 52.9592 56.1898C52.5692 55.8198 52.5392 55.3698 52.8092 54.9198C52.9292 54.7197 53.0992 54.5598 53.2692 54.3998C54.9592 52.7098 56.6492 51.0198 58.3392 49.3298C59.1192 48.5498 59.0992 48.5698 58.3392 47.7698C57.9792 47.3898 57.7492 47.3898 57.3792 47.7698C55.6192 49.5698 53.8292 51.3398 52.0492 53.1098C51.8592 53.2998 51.6492 53.4998 51.4192 53.6398C51.0092 53.8798 50.5892 53.8098 50.2492 53.4898C49.8892 53.1398 49.8192 52.7098 50.0692 52.2798C50.2092 52.0498 50.4092 51.8498 50.5992 51.6498C52.2592 49.9898 53.9192 48.3298 55.5692 46.6698C56.4992 45.7298 56.4692 45.9998 55.5892 45.0398C55.2092 44.6198 54.9992 44.7098 54.6492 45.0698C52.8892 46.8698 51.0992 48.6398 49.3192 50.4098C49.1292 50.5998 48.9292 50.7998 48.6892 50.9298C48.2492 51.1698 47.8192 51.0998 47.4792 50.7298C47.1492 50.3598 47.1092 49.9297 47.3992 49.5098C47.5292 49.3198 47.6992 49.1598 47.8692 48.9898C49.5292 47.3298 51.1892 45.6698 52.8492 44.0098C53.7092 43.1497 53.6892 43.1698 52.8692 42.2998C52.4992 41.9098 52.2892 41.9998 51.9592 42.3298C50.1792 44.1398 48.3792 45.9198 46.5792 47.7198C46.4192 47.8798 46.2492 48.0598 46.0592 48.1798C45.6392 48.4598 45.2092 48.4198 44.8392 48.0798C44.4692 47.7398 44.4092 47.3097 44.6492 46.8698C44.7692 46.6497 44.9592 46.4698 45.1292 46.2898C46.7692 44.6398 48.4192 42.9998 50.0592 41.3598C50.9892 40.4298 50.9692 40.4497 50.0692 39.5298C49.7092 39.1598 49.5092 39.2398 49.2292 39.5798C48.6292 40.2898 48.0092 40.9798 47.3892 41.6798C44.2792 45.1898 41.1692 48.7098 38.0492 52.2098C37.7292 52.5698 37.6792 52.7897 38.0292 53.1898C40.6292 56.2897 40.7192 60.6898 38.2692 63.9198C36.8692 65.7598 34.9892 66.7998 32.7592 67.2598H29.9492V67.2498ZM71.9992 5.98975C71.9492 5.92975 71.8892 5.87975 71.8392 5.81975C69.8092 7.46975 67.7592 9.10975 65.7392 10.7698C58.2592 16.9098 50.8392 23.1298 43.5292 29.4698C39.4292 33.0298 35.3292 36.5998 31.2992 40.2398C30.9192 40.5798 30.8592 40.8398 31.1092 41.3098C32.7392 44.3598 32.3192 48.0698 30.0292 50.6498C28.9792 51.8298 27.8092 52.9098 26.7192 54.0598C25.2092 55.6398 24.5792 57.4998 24.8892 59.6898C25.3292 62.8097 27.9692 65.1997 31.3092 65.2697C34.6592 65.3397 37.1292 63.0698 37.7592 60.2898C38.3392 57.7698 37.6892 55.5698 35.7692 53.7698C34.9792 53.0298 34.9692 52.6098 35.6892 51.7898C36.0192 51.4098 36.3292 50.9998 36.6992 50.6598C37.1192 50.2698 37.1292 50.0298 36.6392 49.6498C35.5392 48.7998 34.9092 47.6398 34.7492 46.2498C34.6792 45.6298 35.0092 45.1798 35.5492 45.0598C36.0592 44.9498 36.5492 45.2898 36.7292 45.8798C36.7692 45.9998 36.7992 46.1198 36.8192 46.2498C36.9392 46.9998 37.3392 47.5798 37.8992 48.0598C38.4892 48.5598 38.5692 48.5598 39.0692 47.9898C42.0692 44.5798 45.0892 41.1797 48.0792 37.7598C56.3392 28.2998 64.4092 18.6898 72.2992 8.91975C72.6592 8.47975 73.0092 8.02975 73.3592 7.57975C73.2992 7.52975 73.2492 7.47975 73.1892 7.42975C72.9592 7.70975 72.7592 7.99975 72.4992 8.25975C61.0292 19.7398 49.5492 31.2198 38.0692 42.6998C37.8492 42.9198 37.6192 43.1498 37.3592 43.3298C36.9192 43.6398 36.4692 43.5998 36.0892 43.2198C35.7092 42.8498 35.6592 42.3998 35.9692 41.9498C36.1492 41.6898 36.3792 41.4698 36.5992 41.2398C48.1092 29.7398 59.6192 18.2298 71.1292 6.71975C71.3992 6.45975 71.7092 6.22975 71.9992 5.98975ZM73.4292 54.6398C73.4692 53.7998 73.0392 53.1098 72.4092 52.4798C67.9392 48.0198 63.4692 43.5498 58.9992 39.0798C57.4592 37.5398 55.9092 36.0098 54.3892 34.4598C54.0692 34.1398 53.8992 34.1298 53.6092 34.4898C52.9392 35.3098 52.2292 36.0898 51.5392 36.8898C50.9492 37.5698 50.9492 37.5698 51.5692 38.1898C57.8492 44.4697 64.1192 50.7398 70.3992 57.0198C71.3392 57.9598 71.3292 57.9497 72.2692 57.0298C72.9492 56.3797 73.4392 55.6798 73.4292 54.6398ZM24.6592 5.87975C23.8592 5.87975 23.2292 6.12975 22.6992 6.62975C22.3892 6.91975 22.1192 7.24975 21.7992 7.50975C21.3992 7.83975 21.4492 8.05975 21.7992 8.40975C24.6492 11.2398 27.4792 14.0798 30.3192 16.9198C33.9592 20.5598 37.6092 24.1998 41.2392 27.8598C41.5892 28.2198 41.8192 28.2798 42.2092 27.9098C43.0092 27.1598 43.8492 26.4498 44.6992 25.7598C45.0992 25.4298 45.1492 25.1998 44.7492 24.8198C43.4992 23.6198 42.2892 22.3798 41.0692 21.1498C36.3192 16.3998 31.5692 11.6598 26.8292 6.89975C26.1992 6.26975 25.4992 5.85975 24.6592 5.87975Z" fill="#767A61"/>
</svg>
