<svg width="84" height="84" viewBox="0 0 84 84" fill="none" xmlns="http://www.w3.org/2000/svg">
<path d="M21.7692 83.5927C21.1318 83.2005 20.8704 82.6286 20.8867 81.877C20.9194 80.243 20.9194 78.609 20.8867 76.9914C20.8704 76.1254 21.2299 75.5698 21.9653 75.145C25.9857 72.7594 29.9733 70.3248 34.01 67.9555C34.6311 67.596 34.8108 67.2365 34.6474 66.5176C34.2388 64.6875 33.9447 62.8411 33.5688 60.9947C33.4217 60.2431 33.34 59.4915 33.34 58.7235C33.34 55.5699 33.34 52.4164 33.34 49.2628C33.34 48.217 33.3073 48.2007 32.3594 48.5602C22.4393 52.302 12.4865 56.0274 2.53368 59.7529C0.866704 60.3738 0.0332181 59.8019 0.0168753 58.0209C0.0168753 55.5536 0.0332181 53.0699 0.000532417 50.6026C-0.0158104 49.7039 0.343732 49.1157 1.12819 48.7072C2.38659 48.07 3.59596 47.3347 4.8707 46.7138C5.41002 46.436 5.60613 46.0765 5.57345 45.4883C5.54076 44.7367 5.5571 43.9687 5.57345 43.2007C5.62248 41.2563 6.88088 39.6713 8.77665 39.1648C10.558 38.6746 12.5355 39.4426 13.467 41.1092C13.8429 41.7955 14.1534 41.7465 14.7091 41.4033C15.6243 40.8641 16.5558 40.3739 17.5037 39.8837C17.945 39.655 18.1411 39.3609 18.1248 38.8543C18.0921 37.9883 18.1084 37.1223 18.1248 36.24C18.1574 34.3446 19.4322 32.6942 21.2136 32.204C23.044 31.6975 25.0705 32.4655 25.9693 34.1485C26.3779 34.9164 26.7048 34.9164 27.3912 34.5243C28.9928 33.5929 30.5944 32.6779 32.2613 31.8772C33.1438 31.4524 33.3727 30.8969 33.3563 29.9818C33.3073 25.5211 33.3236 21.0603 33.34 16.6159C33.3727 12.2695 34.2388 8.10286 36.0202 4.11595C36.87 2.22054 38.1284 0.815315 40.1549 0.227082C42.9005 -0.573567 45.8749 0.798974 47.1824 3.46236C49.0291 7.25319 50.0751 11.2238 50.2058 15.4558C50.3692 20.4067 50.2548 25.3413 50.2712 30.2923C50.2712 31.0112 50.5 31.4197 51.1537 31.7465C52.9677 32.6779 54.7491 33.6583 56.5305 34.655C57.0371 34.9328 57.2496 34.8511 57.5274 34.3446C58.5243 32.5308 60.4201 31.6975 62.3322 32.1714C64.228 32.6452 65.5027 34.3282 65.5191 36.387C65.5191 37.204 65.5517 38.021 65.5191 38.838C65.5027 39.3445 65.6988 39.6386 66.1401 39.8674C67.186 40.4066 68.1993 40.9622 69.2289 41.5341C69.6211 41.7628 69.8172 41.7138 70.0624 41.3053C71.19 39.4099 73.0531 38.6256 74.9652 39.1811C76.9264 39.7367 78.0867 41.3543 78.0867 43.5275C78.0867 43.985 78.1521 44.4589 78.0704 44.9164C77.8906 46.0112 78.3645 46.6157 79.3288 47.0406C80.3911 47.5144 81.388 48.1353 82.4339 48.6745C82.9079 48.9196 83.3001 49.2301 83.5779 49.6876C83.5779 52.8412 83.5779 55.9948 83.5779 59.1483C82.7935 60.0961 82.3522 60.2268 81.1755 59.7856C71.2064 56.0438 61.2372 52.302 51.2681 48.5765C50.3365 48.2334 50.3039 48.2497 50.3039 49.2301C50.3039 52.4327 50.3039 55.6353 50.3039 58.8542C50.3039 59.5568 50.2385 60.2594 50.0914 60.9621C49.7318 62.8248 49.4213 64.7039 48.9964 66.5503C48.833 67.2692 49.0455 67.6124 49.6501 67.9718C53.6541 70.3411 57.6255 72.743 61.6131 75.1287C62.3976 75.5862 62.7898 76.1744 62.7571 77.1058C62.7081 78.6744 62.7244 80.2593 62.7571 81.828C62.7734 82.5959 62.561 83.2168 61.8746 83.6253C61.3353 83.6253 60.7796 83.6253 60.2403 83.6253C55.648 82.841 51.072 82.0567 46.4796 81.2561C46.1855 81.2071 45.9566 81.2887 45.7769 81.5502C45.1068 82.6123 44.0772 83.2005 42.9496 83.6253C42.1814 83.6253 41.4297 83.6253 40.6616 83.6253C39.5339 83.1842 38.5043 82.6123 37.8342 81.5338C37.6218 81.1907 37.3113 81.2234 36.9681 81.2887C35.154 81.5992 33.34 81.8933 31.5259 82.2038C28.813 82.6776 26.0837 83.1515 23.3708 83.6253C22.8642 83.5927 22.3085 83.5927 21.7692 83.5927ZM47.3295 37.6288C47.3295 30.7008 47.3458 23.7727 47.3295 16.8283C47.3131 12.7434 46.496 8.85449 44.7473 5.14536C44.1426 3.87085 43.2437 2.95583 41.7729 2.95583C40.351 2.95583 39.4685 3.83817 38.8802 5.09634C37.2296 8.67475 36.3797 12.4492 36.3634 16.3871C36.347 30.5701 36.347 44.7693 36.3634 58.9523C36.3634 59.3117 36.3634 59.6549 36.4288 59.998C37.6381 66.3215 38.8638 72.6287 40.0896 78.9522C40.3184 80.1123 40.874 80.6352 41.8382 80.6352C42.8188 80.6352 43.3745 80.1286 43.6033 78.9685C44.5348 74.1973 45.3683 69.4097 46.3979 64.6549C47.166 61.1418 47.4112 57.6287 47.3621 54.0667C47.2804 48.6092 47.3295 43.119 47.3295 37.6288ZM33.34 39.9654C33.34 38.6419 33.34 37.3021 33.34 35.9785C33.34 34.6877 33.34 34.6713 32.2286 35.2759C26.2145 38.5275 20.184 41.7955 14.1698 45.0471C10.7051 46.9098 7.24042 48.8053 3.77573 50.668C3.22008 50.9621 2.99128 51.3216 3.00762 51.9425C3.05665 53.1026 3.00762 54.2791 3.02396 55.4392C3.02396 56.3379 3.08933 56.3706 3.89013 56.0765C5.31196 55.5536 6.73379 55.0144 8.17196 54.4752C16.2617 51.436 24.3514 48.3968 32.4411 45.3902C33.1438 45.1288 33.4053 44.7693 33.3727 44.0177C33.3073 42.6778 33.34 41.3216 33.34 39.9654ZM50.3365 39.9164C50.3365 41.3216 50.3692 42.7432 50.3202 44.1484C50.3039 44.802 50.5163 45.1288 51.1373 45.3412C53.3927 46.1419 55.6153 47.0079 57.8543 47.8412C65.1268 50.57 72.3994 53.2987 79.672 56.0111C80.6199 56.3706 80.6362 56.3542 80.6525 55.2922C80.6525 54.5078 80.5545 53.7072 80.6689 52.9392C80.8813 51.5177 80.2766 50.7987 79.0182 50.1288C73.2983 47.1223 67.6273 44.0014 61.94 40.9131C58.3772 38.9851 54.8145 37.057 51.2517 35.1452C50.3365 34.655 50.3202 34.655 50.3202 35.7334C50.3365 37.155 50.3365 38.5275 50.3365 39.9164ZM23.8938 78.6907C23.8938 79.1482 23.9101 79.4424 23.8938 79.7528C23.8774 80.2267 24.0245 80.4391 24.5638 80.341C28.4698 79.6711 32.3757 79.0175 36.298 78.3803C36.8046 78.2986 36.9027 78.1188 36.8046 77.6123C36.3797 75.5371 35.9712 73.462 35.6116 71.3705C35.4809 70.6679 35.2521 70.6189 34.6637 70.9783C31.4769 72.9228 28.3064 74.8509 25.0868 76.7136C24.188 77.2365 23.616 77.7757 23.8938 78.6907ZM59.7827 78.9358C59.7337 78.2332 59.9625 77.5143 59.1127 77.0241C55.7133 75.047 52.3304 73.0045 48.9801 70.9457C48.3754 70.5699 48.212 70.7496 48.0976 71.3542C47.738 73.2823 47.3621 75.194 46.9863 77.1058C46.7575 78.2822 46.7575 78.2659 47.9341 78.462C51.3825 79.0339 54.8472 79.5894 58.2955 80.1777C60.0932 80.4881 59.75 80.4718 59.7827 78.9358ZM21.0338 36.6648C21.0174 37.9556 21.0501 37.972 21.9817 37.4655C22.4066 37.2367 22.8315 36.9916 23.2728 36.7628C23.5669 36.5994 23.763 36.4034 23.6323 36.0439C23.4362 35.5047 23.093 35.0962 22.472 35.0472C21.8673 35.0145 21.4097 35.2923 21.1972 35.8642C21.0665 36.1909 21.0501 36.5504 21.0338 36.6648ZM62.6427 36.7302C62.6264 36.6648 62.61 36.3707 62.5446 36.0766C62.3812 35.374 61.9073 35.0145 61.1882 35.0472C60.5672 35.0798 60.2076 35.5047 60.0442 36.0439C59.8644 36.6158 60.3874 36.6975 60.7142 36.8936C61.0574 37.106 61.417 37.3021 61.7765 37.4818C62.6264 37.9556 62.659 37.9393 62.6427 36.7302ZM8.58053 43.5112C8.56419 44.6223 8.62956 44.6713 9.52842 44.1974C9.93699 43.985 10.3292 43.7563 10.7378 43.5275C11.179 43.2824 11.1627 42.9556 10.9176 42.5798C10.5417 42.0079 10.0024 41.9099 9.41402 42.0896C8.71128 42.3184 8.5315 42.9066 8.58053 43.5112ZM75.096 43.5438C75.145 42.9556 75.0143 42.351 74.3115 42.1059C73.8049 41.9262 73.2819 41.9589 72.8897 42.4164C72.5138 42.8576 72.3994 43.2661 73.0368 43.5929C73.429 43.7889 73.7885 44.0014 74.1808 44.2138C75.0469 44.655 75.096 44.6223 75.096 43.5438Z" fill="#99A77B"/>
<path d="M41.7724 8.38086C43.1452 8.51158 44.3056 9.03445 44.8939 10.3743C45.2862 11.273 45.5476 12.2207 45.8582 13.1357C45.9726 13.4789 45.9072 13.724 45.5476 13.8383C45.4986 13.8547 45.4496 13.871 45.4006 13.8874C43.2923 14.737 43.3087 14.737 42.5569 12.5638C42.4098 12.139 42.4588 11.4201 41.8378 11.4527C41.2495 11.4691 41.2658 12.1717 41.1187 12.5965C40.3833 14.688 40.3996 14.688 38.3404 13.92C37.8175 13.724 37.6704 13.4789 37.8665 12.956C38.177 12.139 38.4058 11.3057 38.7327 10.505C39.272 9.14883 40.367 8.54426 41.7724 8.38086Z" fill="#99A77B"/>
</svg>
