<svg xmlns="http://www.w3.org/2000/svg" width="53" height="52" fill="none"><path fill="#fff" d="M14.171 52a1.105 1.105 0 0 1-.537-1.05c.017-1 .02-2 0-2.993a1.183 1.183 0 0 1 .66-1.132c2.457-1.463 4.9-2.947 7.365-4.4a.69.69 0 0 0 .392-.878c-.249-1.12-.432-2.252-.655-3.377a6.936 6.936 0 0 1-.136-1.386c.005-1.933.005-3.862 0-5.788 0-.641-.017-.65-.6-.431L2.4 37.4c-1.02.382-1.532.027-1.535-1.064 0-1.513.012-3.027-.006-4.54a1.16 1.16 0 0 1 .694-1.156c.77-.395 1.515-.836 2.287-1.225a.692.692 0 0 0 .427-.75c-.024-.463-.013-.93 0-1.4a2.592 2.592 0 0 1 1.958-2.471 2.532 2.532 0 0 1 2.87 1.185c.235.422.417.387.761.18a26.098 26.098 0 0 1 1.711-.925.6.6 0 0 0 .38-.626c-.02-.53-.01-1.064 0-1.6a2.605 2.605 0 0 1 1.9-2.473 2.543 2.543 0 0 1 2.912 1.188c.252.47.455.473.866.235.978-.567 1.963-1.128 2.982-1.616a1.083 1.083 0 0 0 .675-1.163c-.026-2.73-.029-5.458-.008-8.184a18.79 18.79 0 0 1 1.642-7.646A3.934 3.934 0 0 1 25.441.973a3.679 3.679 0 0 1 4.3 1.98 17.974 17.974 0 0 1 1.852 7.34c.1 3.028.027 6.053.044 9.08a.865.865 0 0 0 .54.89c1.11.566 2.2 1.17 3.29 1.78.306.17.441.117.61-.19a2.587 2.587 0 0 1 4.888 1.25c0 .5.017 1 0 1.5a.6.6 0 0 0 .38.627c.635.326 1.264.666 1.885 1.022.24.137.357.106.506-.143a2.575 2.575 0 0 1 3-1.3 2.6 2.6 0 0 1 1.913 2.66c.022.281.02.564-.007.846a1.091 1.091 0 0 0 .775 1.3c.651.29 1.262.67 1.9 1 .286.136.528.35.7.615v5.789a1.041 1.041 0 0 1-1.475.39l-18.3-6.862c-.565-.213-.587-.2-.587.4v5.886c0 .432-.043.863-.127 1.287-.223 1.14-.41 2.289-.666 3.422a.688.688 0 0 0 .4.875c2.447 1.448 4.876 2.924 7.321 4.375a1.25 1.25 0 0 1 .7 1.21c-.027.965-.02 1.93 0 2.894a1.132 1.132 0 0 1-.537 1.1h-1c-2.808-.482-5.615-.965-8.422-1.45a.383.383 0 0 0-.427.18 3.28 3.28 0 0 1-1.73 1.27h-1.4a3.324 3.324 0 0 1-1.73-1.275c-.13-.21-.318-.185-.527-.15-1.11.192-2.223.367-3.333.558-1.667.285-3.33.575-4.99.867L14.17 52ZM29.81 23.87V11.145A16.52 16.52 0 0 0 28.224 4a1.98 1.98 0 0 0-1.817-1.341 1.93 1.93 0 0 0-1.774 1.314 16.322 16.322 0 0 0-1.537 6.907c-.013 8.683-.013 17.366 0 26.049-.006.215.008.431.042.645.743 3.866 1.49 7.733 2.24 11.6.137.706.481 1.03 1.072 1.032.591.002.944-.311 1.081-1.016.567-2.92 1.077-5.851 1.71-8.757.444-2.131.64-4.306.587-6.483-.045-3.36-.012-6.718-.012-10.08m-8.559 1.427v-2.445c0-.792 0-.8-.68-.43l-11.053 5.98c-2.119 1.149-4.235 2.3-6.36 3.442a.759.759 0 0 0-.468.784c.027.712 0 1.43.01 2.145 0 .548.037.574.526.394a15144.927 15144.927 0 0 1 17.465-6.539.737.737 0 0 0 .57-.838c-.034-.83-.01-1.662-.01-2.493Zm10.4-.026c0 .863.018 1.729-.008 2.593a.649.649 0 0 0 .5.733c1.377.495 2.743 1.017 4.112 1.532l13.353 5c.584.22.594.21.6-.438a10.51 10.51 0 0 1 .012-1.443 1.5 1.5 0 0 0-1.012-1.721c-3.5-1.836-6.967-3.751-10.446-5.635-2.178-1.18-4.357-2.358-6.538-3.534-.563-.3-.568-.294-.569.364v2.546M15.48 48.993c0 .28.005.465 0 .646-.01.292.075.421.41.363 2.39-.408 4.782-.808 7.177-1.2.31-.05.368-.164.306-.466-.26-1.267-.505-2.54-.732-3.817-.076-.431-.217-.46-.576-.242a337.55 337.55 0 0 1-5.863 3.513c-.534.31-.884.639-.72 1.2m21.967.155c-.03-.427.111-.867-.414-1.174a355.146 355.146 0 0 1-6.2-3.716c-.37-.227-.472-.115-.54.253-.217 1.176-.45 2.349-.679 3.523-.14.716-.14.712.582.83 2.114.346 4.228.695 6.341 1.048 1.1.185.888.17.914-.764M13.736 23.27c-.012.787 0 .8.577.486.263-.143.523-.292.788-.431.181-.1.3-.22.22-.436a.785.785 0 0 0-.71-.606.724.724 0 0 0-.778.5 2.289 2.289 0 0 0-.1.488m25.464.043a3.207 3.207 0 0 0-.059-.4.74.74 0 0 0-.829-.629.764.764 0 0 0-.7.614c-.109.35.211.4.411.52.2.12.434.247.653.364.517.277.53.268.524-.47ZM6.1 27.46c-.008.685.027.708.58.418.248-.13.492-.271.74-.405.273-.15.261-.35.11-.58a.788.788 0 0 0-1.43.567Zm40.7.023a.767.767 0 0 0-.482-.88.743.743 0 0 0-.867.186c-.23.266-.3.519.086.717.236.12.465.255.7.378.531.28.567.256.564-.4"/></svg>