<svg width="89" height="70" viewBox="0 0 89 70" fill="none" xmlns="http://www.w3.org/2000/svg">
<path d="M15.0579 59.7212C15.069 63.3489 17.73 65.9922 21.3818 65.9922C36.8132 66.0033 52.2335 66.0033 67.6649 65.9812C68.3107 65.9812 68.9119 65.9148 69.4463 65.771C72.2409 65.03 73.9777 62.7074 73.9777 59.7212C73.9777 56.6686 73.9777 53.605 73.9777 50.5524C73.9777 44.6463 73.9777 38.7292 74 32.8231C74 31.7724 73.6771 31.1641 72.7864 30.6C69.3684 28.3991 65.9503 26.176 62.5434 23.9529C60.3611 22.5262 58.1678 21.0994 55.9856 19.6837C55.2396 19.1971 54.9835 18.6109 55.106 17.715C55.2173 16.9298 55.351 15.7463 55.2285 14.6514C54.9947 12.6163 53.9704 10.891 52.0999 9.3868L51.2426 8.70108L52.0888 8.01535C53.3135 7.01995 54.6829 6.30104 56.2973 5.8144C56.7872 5.67062 57.1658 5.38306 57.3662 5.01807C57.5332 4.70839 57.5554 4.35447 57.4441 3.98949C57.1769 3.15998 56.4198 2.81712 55.4623 3.09362C52.9906 3.80147 50.8084 5.11762 48.9936 6.99783C48.615 7.38493 48.0138 7.62825 47.4571 7.60613C45.0522 7.51765 43.037 8.21444 41.456 9.71861C40.4651 10.6587 39.5299 10.8799 38.2161 10.4707C37.292 10.1831 36.3568 10.0615 35.4327 10.0615C33.6401 10.0615 31.8699 10.5039 30.1775 11.0237C20.8252 13.8772 14.8686 21.6082 15.0022 30.7106C15.1024 37.2361 15.0801 43.861 15.069 50.2759C15.0579 53.428 15.0579 56.5801 15.0579 59.7212ZM71.1164 49.3358V50.7183C71.1164 53.7045 71.1164 56.6907 71.1164 59.688C71.1164 61.8226 69.7914 63.1498 67.6649 63.1498C59.1921 63.1498 50.7304 63.1498 42.2577 63.1498C35.299 63.1498 28.3293 63.1498 21.3707 63.1498C19.2887 63.1498 17.9304 61.8115 17.9304 59.7544C17.9304 56.8456 17.9304 53.9478 17.9304 51.039V49.4021C17.9304 49.2584 17.9415 49.1146 17.9526 48.9487L18.0083 47.6768L19.0438 47.898C20.6136 48.2298 21.9051 49.015 22.9628 49.745C24.5661 50.851 26.303 51.5478 28.1289 51.8243C31.9812 52.4105 35.3436 51.6252 38.4276 49.4353C41.9348 46.9357 46.7446 46.9026 50.3853 49.369C51.1201 49.8667 51.9218 50.3754 52.7457 50.7404C57.3773 52.7533 61.8865 52.3662 66.1396 49.5791C67.0971 48.9487 68.3997 48.1855 69.9918 47.8316L71.0384 47.5993L71.1052 48.8823C71.1052 49.0482 71.1164 49.192 71.1164 49.3358ZM71.0718 44.7569L70.3147 44.8675C67.9766 45.2104 65.9169 46.3717 64.013 47.533C62.1648 48.6611 60.2721 49.2141 58.3905 49.2141C56.353 49.2141 54.3266 48.5505 52.3671 47.2344C49.5503 45.332 46.5887 44.5246 43.3265 44.7458C40.9439 44.9118 38.7394 45.7191 36.5683 47.2233C33.3061 49.4796 29.721 49.8003 25.9022 48.1523C25.6015 48.0196 25.3677 47.898 25.1673 47.7542C22.807 46.0952 20.814 45.2104 18.7209 44.8896L17.9638 44.779V33.6415H71.083V44.7569H71.0718ZM46.9561 10.4486H46.9672C49.9956 10.4596 52.4673 12.915 52.4784 15.9344C52.4896 17.4164 51.9106 18.81 50.8752 19.8496C49.8286 20.9003 48.4369 21.4755 46.9561 21.4755C46.945 21.4755 46.945 21.4755 46.9338 21.4755C45.453 21.4755 44.0613 20.9003 43.0036 19.8496C41.9459 18.7989 41.3669 17.4164 41.3781 15.9565C41.4003 12.915 43.8943 10.4486 46.9561 10.4486ZM17.8636 29.7263C17.897 29.4608 17.9081 29.1954 17.9304 28.9299C17.9749 28.3327 18.0306 27.7023 18.1642 27.0829C19.5002 21.0552 23.308 16.7639 29.4761 14.3196C31.0348 13.7002 32.6938 13.3905 34.297 13.0809L34.6867 13.0034C35.3325 12.8818 35.9671 12.9703 36.5238 13.0366C36.7353 13.0698 36.9468 13.0919 37.1584 13.103C37.6594 13.1362 38.038 13.3242 38.3052 13.6339C38.706 14.1205 38.628 14.762 38.6058 14.9611C38.2495 17.8035 39.1736 20.2367 41.3335 22.1722C44.4844 25.0036 49.1383 25.0589 52.3894 22.305C53.1242 21.6856 53.8368 21.6414 54.6273 22.1612C56.9987 23.7317 59.3814 25.2801 61.764 26.8285L64.4695 28.5871C64.6031 28.6756 64.7367 28.7751 64.9037 28.8857L67.4311 30.6885H17.7634L17.8636 29.7263Z" fill="#767A61"/>
</svg>
