<svg width="53" height="52" viewBox="0 0 53 52" fill="none" xmlns="http://www.w3.org/2000/svg">
<path d="M14.1711 51.9996C13.9916 51.8931 13.846 51.7379 13.751 51.5521C13.6559 51.3663 13.6154 51.1574 13.6341 50.9496C13.6511 49.9496 13.6541 48.9496 13.6341 47.9566C13.6202 47.724 13.6754 47.4925 13.7926 47.2911C13.9099 47.0897 14.0839 46.9274 14.2931 46.8246C16.7511 45.3616 19.1931 43.8777 21.6591 42.4247C21.8258 42.3581 21.96 42.229 22.0332 42.065C22.1064 41.9011 22.1128 41.7153 22.0511 41.5467C21.8021 40.4277 21.6191 39.2945 21.3961 38.1705C21.3044 37.7142 21.2588 37.2499 21.2601 36.7845C21.2654 34.8512 21.2654 32.9217 21.2601 30.9957C21.2601 30.3547 21.2431 30.3456 20.6601 30.5646L2.40007 37.3995C1.38007 37.7815 0.868395 37.4269 0.865061 36.3356C0.865061 34.8226 0.87708 33.3085 0.85908 31.7955C0.840034 31.5546 0.896659 31.3138 1.02107 31.1066C1.14548 30.8993 1.33146 30.736 1.55308 30.6395C2.32208 30.2455 3.06807 29.8037 3.84007 29.4147C3.9856 29.3567 4.10712 29.2509 4.1847 29.1149C4.26229 28.9788 4.29133 28.8204 4.26707 28.6656C4.24307 28.2016 4.25407 27.7347 4.26707 27.2657C4.27616 26.6957 4.47292 26.1445 4.82688 25.6976C5.18085 25.2507 5.67229 24.9329 6.22508 24.7936C6.76713 24.6444 7.34341 24.6801 7.86305 24.8946C8.38269 25.1092 8.81613 25.4905 9.09507 25.9786C9.33007 26.4006 9.51206 26.3656 9.85606 26.1586C10.4111 25.8246 10.9881 25.5255 11.5671 25.2335C11.6904 25.1858 11.7946 25.0987 11.8633 24.9857C11.932 24.8727 11.9615 24.74 11.9471 24.6085C11.9271 24.0775 11.9371 23.5437 11.9471 23.0087C11.9547 22.4467 12.1439 21.9023 12.4863 21.4567C12.8287 21.011 13.306 20.6877 13.8471 20.5355C14.3952 20.3782 14.9804 20.4098 15.5085 20.6251C16.0367 20.8404 16.4771 21.2268 16.7591 21.7225C17.0111 22.1935 17.2141 22.1956 17.6251 21.9576C18.6031 21.3906 19.5881 20.8297 20.6071 20.3417C20.8343 20.2524 21.0246 20.0889 21.1472 19.8778C21.2697 19.6667 21.3173 19.4202 21.2821 19.1786C21.2561 16.4492 21.2534 13.7214 21.2741 10.9947C21.2791 8.35912 21.8386 5.75405 22.9161 3.34874C23.1275 2.78617 23.4651 2.2794 23.9028 1.86754C24.3405 1.45568 24.8667 1.14944 25.4411 0.972521C26.2762 0.743743 27.1653 0.816891 27.9518 1.17906C28.7384 1.54124 29.3719 2.1692 29.7411 2.9525C30.8726 5.24024 31.504 7.74282 31.5931 10.2936C31.6931 13.3206 31.6201 16.3457 31.6371 19.3727C31.6183 19.5594 31.6608 19.7471 31.758 19.9076C31.8552 20.0681 32.0019 20.1926 32.1761 20.2626C33.2861 20.8286 34.3761 21.4326 35.4671 22.0426C35.7731 22.2136 35.9081 22.1596 36.0761 21.8526C36.3434 21.3301 36.7805 20.914 37.3156 20.6727C37.8506 20.4314 38.4518 20.3793 39.0204 20.5248C39.589 20.6703 40.0912 21.0049 40.4446 21.4735C40.798 21.9421 40.9815 22.5169 40.9651 23.1036C40.9651 23.6036 40.9821 24.1036 40.9651 24.6036C40.9504 24.7352 40.9795 24.8678 41.0481 24.9811C41.1166 25.0943 41.2207 25.1817 41.3441 25.2296C41.9801 25.5556 42.6087 25.8962 43.2301 26.2516C43.4701 26.3886 43.5871 26.3575 43.7361 26.1085C44.0083 25.578 44.4562 25.1586 45.0033 24.9215C45.5504 24.6844 46.1628 24.6445 46.7361 24.8087C47.3117 24.9653 47.816 25.3151 48.1643 25.7994C48.5126 26.2837 48.6838 26.8731 48.6491 27.4686C48.6708 27.7503 48.6684 28.0333 48.6421 28.3146C48.578 28.5894 48.623 28.8786 48.7675 29.121C48.912 29.3634 49.1448 29.5402 49.4171 29.6146C50.0681 29.9046 50.6791 30.2856 51.3171 30.6146C51.6026 30.7513 51.8448 30.9641 52.0171 31.2296V37.0187C51.9499 37.1452 51.8573 37.2565 51.7451 37.3456C51.6329 37.4346 51.5035 37.4995 51.365 37.5362C51.2265 37.573 51.0819 37.5807 50.9403 37.5589C50.7987 37.5372 50.6631 37.4862 50.5421 37.4095L32.2421 30.5467C31.6771 30.3337 31.6551 30.3466 31.6551 30.9466C31.6551 32.9086 31.6551 34.8706 31.6551 36.8326C31.6548 37.2647 31.6123 37.6959 31.5281 38.1197C31.3051 39.2607 31.1171 40.4086 30.8621 41.5416C30.8014 41.7108 30.8093 41.8969 30.8841 42.0604C30.9588 42.2239 31.0944 42.3518 31.2621 42.4166C33.7091 43.8646 36.1381 45.3406 38.5831 46.7916C38.8072 46.9007 38.9936 47.0744 39.1183 47.2901C39.2431 47.5059 39.3004 47.7539 39.2831 48.0025C39.2561 48.9665 39.2621 49.9316 39.2831 50.8956C39.3085 51.1112 39.2715 51.3295 39.1763 51.5245C39.081 51.7196 38.9317 51.8832 38.7461 51.9957H37.7461C34.9381 51.5137 32.1307 51.0307 29.3241 50.5467C29.2431 50.5259 29.1576 50.532 29.0805 50.5643C29.0034 50.5966 28.939 50.6533 28.8971 50.7257C28.4789 51.3313 27.8692 51.7786 27.1661 51.9957H25.7661C25.0645 51.7738 24.4564 51.3252 24.0371 50.7206C23.9061 50.5116 23.7191 50.5356 23.5101 50.5716C22.4001 50.7626 21.2871 50.9385 20.1771 51.1285C18.5104 51.4145 16.8467 51.7037 15.1861 51.9957L14.1711 51.9996ZM29.8091 23.8697C29.8091 19.6291 29.8091 15.3873 29.8091 11.1446C29.8216 8.67443 29.28 6.23283 28.2241 3.99962C28.0941 3.61747 27.8504 3.28423 27.5256 3.04454C27.2008 2.80485 26.8106 2.6701 26.4071 2.65856C26.0125 2.66973 25.6308 2.80175 25.3135 3.03673C24.9963 3.27171 24.7588 3.59829 24.6331 3.97252C23.6219 6.13478 23.0972 8.49248 23.0961 10.8795C23.0827 19.5628 23.0827 28.2459 23.0961 36.9286C23.09 37.1444 23.1041 37.3604 23.1381 37.5736C23.8807 41.4403 24.6274 45.307 25.3781 49.1737C25.5151 49.8797 25.8591 50.2037 26.4501 50.2057C27.0411 50.2077 27.3941 49.8946 27.5311 49.1896C28.0981 46.2706 28.6081 43.3387 29.2411 40.4327C29.6845 38.3017 29.8815 36.1266 29.8281 33.9505C29.7831 30.5905 29.8161 27.2317 29.8161 23.8707M21.2571 25.2967V22.8517C21.2571 22.0597 21.2571 22.0517 20.5771 22.4227C16.8924 24.4147 13.2081 26.408 9.52406 28.4027C7.40506 29.5507 5.28907 30.7026 3.16407 31.8436C3.01156 31.9058 2.88341 32.0159 2.79899 32.1573C2.71457 32.2988 2.67846 32.4638 2.69609 32.6276C2.72309 33.3405 2.69606 34.0576 2.70506 34.7726C2.70506 35.3206 2.74307 35.3466 3.23207 35.1666C4.10473 34.8426 4.97639 34.5163 5.84706 34.1876C10.7964 32.3316 15.7464 30.4782 20.6971 28.6276C20.8812 28.5873 21.0429 28.478 21.149 28.3221C21.255 28.1663 21.2973 27.9757 21.2671 27.7897C21.2331 26.9597 21.2571 26.1277 21.2571 25.2967ZM31.6571 25.2706C31.6571 26.1336 31.6751 26.9996 31.6491 27.8636C31.6237 28.0266 31.6613 28.1929 31.7542 28.3292C31.847 28.4655 31.9882 28.5614 32.1491 28.5975C33.5261 29.0925 34.8921 29.6145 36.2611 30.1295L49.6141 35.1295C50.1981 35.3485 50.2081 35.3395 50.2141 34.6915C50.185 34.2105 50.189 33.7282 50.2261 33.2477C50.298 32.8866 50.2346 32.5116 50.048 32.1942C49.8614 31.8768 49.5645 31.6394 49.2141 31.5267C45.7141 29.6907 42.2471 27.7757 38.7681 25.8917C36.5901 24.7117 34.4107 23.5338 32.2301 22.3585C31.6671 22.0585 31.6621 22.0635 31.6611 22.7225C31.6611 23.5695 31.6611 24.4227 31.6611 25.2677M15.4791 48.9935C15.4791 49.2735 15.4841 49.4575 15.4791 49.6395C15.4681 49.9315 15.5541 50.0605 15.8891 50.0025C18.2791 49.5939 20.6714 49.1939 23.0661 48.8026C23.3751 48.7516 23.4341 48.6376 23.3721 48.3356C23.1114 47.0689 22.8674 45.7967 22.6401 44.5187C22.5641 44.0877 22.4231 44.0587 22.0641 44.2767C20.1181 45.4627 18.1701 46.6437 16.2011 47.7897C15.6671 48.0997 15.3171 48.4286 15.4801 48.9896M37.4481 49.1446C37.4181 48.7176 37.5591 48.2775 37.0341 47.9715C34.9521 46.7575 32.8891 45.5095 30.8341 44.2545C30.4631 44.0285 30.3621 44.1397 30.2941 44.5077C30.0771 45.6837 29.8441 46.8566 29.6151 48.0306C29.4751 48.7466 29.4741 48.7427 30.1971 48.8607C32.3111 49.2067 34.4247 49.5559 36.5381 49.9086C37.6381 50.0936 37.4261 50.0796 37.4521 49.1446M13.7361 23.2696C13.7241 24.0566 13.7361 24.0697 14.3131 23.7557C14.5761 23.6127 14.8361 23.4636 15.1011 23.3246C15.2821 23.2246 15.4011 23.1045 15.3211 22.8885C15.283 22.7249 15.1936 22.5779 15.0658 22.4689C14.938 22.3598 14.7786 22.2945 14.6111 22.2826C14.4434 22.2621 14.2739 22.3009 14.1318 22.3922C13.9898 22.4835 13.8841 22.6216 13.8331 22.7826C13.7821 22.9411 13.7486 23.1048 13.7331 23.2706M39.1971 23.3136C39.1858 23.1791 39.1662 23.0456 39.1381 22.9137C39.1105 22.7209 39.008 22.5467 38.8527 22.4291C38.6975 22.3115 38.5021 22.2598 38.3091 22.2855C38.141 22.2964 37.9813 22.3627 37.8547 22.4737C37.7281 22.5848 37.6418 22.7343 37.6091 22.8995C37.5001 23.2495 37.8201 23.2995 38.0201 23.4195C38.2201 23.5395 38.4541 23.6656 38.6731 23.7826C39.1901 24.0596 39.2021 24.0506 39.1971 23.3136ZM6.10008 27.4596C6.09208 28.1446 6.12706 28.1676 6.67906 27.8776C6.92806 27.7486 7.17208 27.6065 7.42008 27.4725C7.69308 27.3235 7.68107 27.1227 7.53007 26.8927C7.42937 26.7444 7.28115 26.6348 7.10984 26.5821C6.93853 26.5295 6.75438 26.5368 6.58778 26.6029C6.42117 26.669 6.28206 26.7899 6.1934 26.9457C6.10474 27.1014 6.07182 27.2826 6.10008 27.4596ZM46.8001 27.4835C46.8389 27.3033 46.8115 27.1152 46.723 26.9535C46.6345 26.7917 46.4908 26.6672 46.3181 26.6026C46.1728 26.5362 46.0099 26.5184 45.8537 26.5519C45.6975 26.5854 45.5563 26.6685 45.4511 26.7887C45.2201 27.0547 45.1511 27.3077 45.5371 27.5057C45.7731 27.6257 46.0021 27.7607 46.2371 27.8837C46.7681 28.1637 46.8041 28.1405 46.8011 27.4835" fill="#767A61"/>
</svg>
