<svg width="89" height="70" viewBox="0 0 89 70" fill="none" xmlns="http://www.w3.org/2000/svg">
<path d="M10.8994 15.4696C10.1294 14.2396 8.85938 13.9896 7.56938 13.8796C6.19938 13.7596 4.89938 14.0096 3.73938 14.8496C3.15938 15.2696 2.46938 15.1396 2.12938 14.6196C1.78938 14.1196 1.90938 13.5196 2.49938 13.0896C4.42938 11.6896 6.58938 11.3996 8.88938 11.8696C9.88938 12.0796 10.8494 12.3996 11.6994 13.0596C11.3994 10.7296 9.56938 8.7196 7.29938 8.6796C6.99938 8.6696 6.68938 8.6896 6.37938 8.6696C5.75938 8.6396 5.34938 8.3096 5.30938 7.6896C5.26938 7.0796 5.60938 6.6496 6.21938 6.5596C7.72938 6.3496 9.14938 6.6396 10.4694 7.4096C11.5094 8.0196 12.2094 8.9496 12.8794 9.9296C13.4894 8.2596 12.5094 5.5796 10.9494 4.5796C10.7594 4.4596 10.5394 4.3696 10.3594 4.2296C9.84938 3.8796 9.67938 3.3996 9.96938 2.8496C10.2594 2.3096 10.7494 2.1196 11.3294 2.3596C12.4094 2.8096 13.2694 3.5396 13.9294 4.5296C14.8494 5.9096 15.1794 7.4596 15.2394 9.0796C15.2494 9.2796 15.2494 9.4896 15.2594 9.6896C15.2594 9.7296 15.3194 9.7596 15.3494 9.7996C15.5894 9.7996 15.6894 9.5996 15.8294 9.4696C17.5894 7.7496 19.6994 7.3496 22.0294 7.8496C22.8694 8.0296 23.2894 8.5696 23.1394 9.2096C22.9794 9.8696 22.4394 10.1396 21.5694 9.9496C18.9294 9.3696 17.5494 10.4296 16.1294 12.6496C16.7194 12.6996 17.2194 12.4396 17.7494 12.3696C19.8294 12.0896 21.7394 12.5296 23.5094 13.6196C23.8394 13.8296 24.2194 14.0996 24.1794 14.4896C24.0794 15.3096 24.5594 15.1796 25.0594 15.1796C27.8594 15.1696 30.6494 15.1596 33.4494 15.1796C34.0094 15.1796 34.2894 15.0496 34.4894 14.4596C34.8494 13.3596 35.7194 12.7696 36.8694 12.7596C41.9794 12.7396 47.0894 12.7296 52.1994 12.7596C53.3494 12.7696 54.2094 13.3796 54.5594 14.4796C54.7494 15.0996 55.0794 15.1796 55.6094 15.1796C58.1994 15.1696 60.7994 15.1696 63.3894 15.1696C64.9294 15.1696 65.5594 15.7996 65.5794 17.3496C65.5894 18.0096 65.5894 18.6696 65.5794 19.3296C65.5694 20.0496 65.3494 20.6596 64.7394 21.1196C64.1494 21.5696 64.2294 22.1796 64.8894 22.4596C65.6594 22.7896 65.9894 23.3696 66.0694 24.1696C66.1894 25.3796 66.3294 26.5896 66.4894 27.7996C66.5994 28.6696 66.4494 29.3996 65.6494 29.9196C65.0694 30.2996 65.1894 31.2496 65.8394 31.4996C66.6794 31.8096 67.0694 32.3896 67.1794 33.2596C67.3794 34.7696 67.6394 36.2696 67.8694 37.7796C67.9594 38.3996 67.7694 38.8796 67.1594 39.1396C66.9494 39.2296 66.5894 39.1296 66.6594 39.5396C66.7194 39.9196 66.5994 40.4396 67.0794 40.5996C68.2294 40.9996 68.6194 41.8896 68.7894 42.9896C68.9494 44.0396 69.1694 45.0896 69.3794 46.1296C69.5294 46.8696 69.3194 47.4696 68.7494 47.9696C68.1294 48.5096 68.2994 49.4396 69.0694 49.6696C69.7994 49.8896 70.2394 50.3496 70.4094 51.0796C70.7294 52.4896 71.0594 53.8996 71.3794 55.3096C71.5294 55.9896 71.2894 56.5596 70.7794 57.0196C70.6594 57.1296 70.4194 57.1796 70.5194 57.4196C70.5894 57.5796 70.7794 57.5596 70.9194 57.5696C73.5294 57.7096 75.7494 58.6696 77.4294 60.7296C77.5094 60.8296 77.5994 60.9496 77.7394 60.8996C77.8794 60.8496 77.8694 60.6896 77.8794 60.5696C77.8894 60.4396 77.8894 60.3196 77.8894 60.1896C77.9094 55.7196 77.9694 51.2396 77.7294 46.7796C77.3994 40.4596 76.7294 34.1796 75.7094 27.9396C75.2394 25.0396 74.7194 22.1296 74.5394 19.1896C74.4894 18.3996 73.9894 17.9296 73.1594 17.8396C71.2594 17.6196 69.4994 18.7396 68.8694 20.5496C68.8294 20.6696 68.7994 20.7896 68.7594 20.9096C68.4994 21.6796 68.0294 22.0096 67.4294 21.8496C66.7494 21.6696 66.4594 21.0796 66.6894 20.2696C67.2494 18.2496 68.5094 16.8396 70.4594 16.0596C71.3094 15.7196 72.2094 15.5796 73.1494 15.5196C72.0494 14.6796 70.8294 14.2396 69.4594 14.3896C68.4894 14.4996 67.5894 14.8496 66.7594 15.3696C65.9994 15.8496 65.3894 15.7896 65.0294 15.2096C64.6694 14.6396 64.8594 14.0196 65.6094 13.5696C67.5594 12.3896 69.6494 11.9696 71.8994 12.4796C72.2094 12.5496 72.5294 12.6296 72.8794 12.7196C72.1794 10.7896 70.0594 9.5296 68.1494 9.8496C67.8494 9.8996 67.5494 9.9596 67.2494 10.0096C66.5694 10.1196 66.0394 9.7996 65.8994 9.1996C65.7694 8.6196 66.1094 8.0696 66.7994 7.8996C69.1094 7.3396 71.2394 7.6696 73.0594 9.3196C73.2594 9.4996 73.3894 9.7796 73.7494 9.8096C73.8094 9.0996 73.8394 8.3996 73.9494 7.7096C74.2794 5.4796 75.2794 3.6696 77.3094 2.5496C77.7994 2.2796 78.2994 2.1196 78.7994 2.5196C79.4294 3.0196 79.3594 3.9496 78.5494 4.3296C76.5194 5.2796 75.7294 7.9496 76.1094 9.9996C76.4394 9.5696 76.7294 9.1596 77.0394 8.7796C78.4494 7.0796 80.3194 6.4596 82.4594 6.5296C83.2694 6.5596 83.7594 7.0296 83.7594 7.6496C83.7594 8.3096 83.2494 8.7396 82.3594 8.6896C79.8494 8.5596 78.0194 10.0796 77.2794 13.1296C78.4694 12.2296 79.7894 11.8896 81.1494 11.7396C83.0094 11.5296 84.7394 11.8996 86.3094 12.9396C87.0894 13.4596 87.2994 14.0796 86.9094 14.6496C86.5294 15.2196 85.8794 15.2496 85.0994 14.7396C83.0994 13.4296 79.7994 13.6396 78.3694 15.1696C78.2894 15.2596 78.2094 15.3696 78.0694 15.5496C78.6994 15.6396 79.2594 15.6896 79.8094 15.7896C82.2494 16.2396 84.1694 17.9296 84.6094 20.0296C84.6594 20.2796 84.6894 20.5296 84.6794 20.7896C84.6594 21.4496 84.2994 21.8596 83.6594 21.9196C83.0394 21.9696 82.6794 21.5796 82.5294 20.9996C81.9994 18.9096 80.5894 17.8096 78.5094 17.8696C77.2794 17.8996 76.7194 18.4296 76.7594 19.6596C76.8394 21.8196 77.2394 23.9496 77.5894 26.0796C78.4094 31.1396 79.1094 36.2196 79.5294 41.3296C80.0094 47.2896 80.1594 53.2496 80.0794 59.2196C80.0794 59.4496 80.0794 59.6796 80.0694 59.9096C79.9994 60.9996 79.9994 60.9996 81.1094 61.1996C82.8694 61.5296 84.2494 62.4596 85.3094 63.8796C85.7194 64.4196 85.9894 65.0296 86.5394 65.4996C87.1494 66.0296 86.7694 67.0496 85.9694 67.2096C85.6994 67.2596 85.4094 67.2396 85.1294 67.2396C58.0394 67.2396 30.9394 67.2396 3.84938 67.2396C3.61938 67.2396 3.38938 67.2496 3.15938 67.2296C2.61938 67.1596 2.26938 66.8696 2.20938 66.3096C2.14938 65.7296 2.40938 65.3296 2.96938 65.1496C3.01938 65.1296 3.06938 65.0996 3.11938 65.1096C4.27938 65.2996 4.71938 64.5396 5.19938 63.6796C5.90938 62.3996 7.03938 61.5196 8.39938 60.9696C8.84938 60.7896 8.98938 60.5496 8.97938 60.0596C8.85938 55.7396 8.91938 51.4196 9.10938 47.0996C9.42938 40.0396 10.2594 33.0396 11.4194 26.0696C11.7394 24.1396 11.9794 22.1996 12.2394 20.2696C12.2794 19.9396 12.2794 19.6096 12.2594 19.2796C12.2194 18.4896 11.8094 18.0196 11.0294 17.8496C9.63938 17.5496 7.64938 18.3796 6.87938 19.5796C6.64938 19.9296 6.56938 20.3196 6.51938 20.7296C6.42938 21.4796 5.93938 21.9296 5.33938 21.8796C4.70938 21.8196 4.27938 21.2696 4.33938 20.4996C4.48938 18.7896 5.42938 17.5796 6.82938 16.6896C7.89938 16.0096 9.08938 15.6596 10.3594 15.5996C10.5094 15.5896 10.6594 15.5696 10.8094 15.5596C10.8394 15.5596 10.8594 15.5296 10.8994 15.4696ZM15.7794 15.5696C16.1394 15.5896 16.3594 15.5996 16.5794 15.6196C19.3194 15.7796 21.6194 17.6096 22.3194 20.1996C22.5494 21.0496 22.3294 21.6296 21.6894 21.8496C21.0494 22.0696 20.5294 21.7096 20.2494 20.8696C20.1994 20.7296 20.1594 20.5796 20.1094 20.4396C19.4794 18.7296 17.7694 17.6696 15.9694 17.8396C15.0594 17.9296 14.5494 18.3596 14.4994 19.1896C14.2594 22.7896 13.5694 26.3296 13.0294 29.8896C12.1694 35.4896 11.6094 41.1096 11.3094 46.7696C11.0894 50.9596 11.1294 55.1496 11.1294 59.3396C11.1294 60.0996 11.2194 60.5496 12.1294 60.4896C12.6294 60.4596 13.0994 60.8296 13.6094 60.3296C14.7794 59.1696 16.2494 58.5396 17.8794 58.3296C18.2194 58.2796 18.4494 58.1896 18.5294 57.8296C18.6094 57.4996 18.5694 57.2696 18.2694 57.0396C17.6994 56.5996 17.4994 55.9696 17.6594 55.2696C17.9694 53.8596 18.3194 52.4496 18.6394 51.0396C18.7994 50.3196 19.2494 49.8996 19.9394 49.6896C20.7094 49.4496 20.9194 48.5296 20.3094 48.0096C19.6794 47.4696 19.5094 46.8296 19.6794 46.0296C19.9394 44.8096 20.1594 43.5896 20.3694 42.3596C20.5194 41.4896 20.8694 40.8196 21.7994 40.5996C22.2294 40.4996 22.3094 40.1696 22.3594 39.7896C22.3994 39.4496 22.4194 39.1796 22.0494 38.9496C21.3894 38.5696 21.1494 37.9396 21.2694 37.1896C21.4694 35.8396 21.6894 34.4796 21.8794 33.1196C21.9894 32.2996 22.3894 31.7796 23.1694 31.4996C23.8294 31.2596 23.9994 30.2896 23.4194 29.9396C22.5694 29.4096 22.4294 28.6596 22.5394 27.7596C22.6894 26.5496 22.8394 25.3396 22.9594 24.1296C23.0394 23.3196 23.3694 22.7296 24.1594 22.4496C24.4394 22.3496 24.6294 22.2096 24.6494 21.8596C24.6694 21.4696 24.4594 21.3196 24.1494 21.1996C23.5494 20.9596 23.1394 20.5096 23.1394 19.8896C23.1294 18.5096 22.8894 17.1196 23.3994 15.6896C22.8194 15.7996 22.4394 15.4796 22.0294 15.2296C20.0294 14.0196 17.5094 14.1296 15.7794 15.5696ZM40.3994 39.8996C40.3994 47.6796 40.3894 55.4496 40.3994 63.2296C40.3994 65.3196 40.1194 65.0396 42.2094 65.0596C43.3894 65.0696 43.3894 65.0596 43.3894 63.9096C43.3894 48.2296 43.3894 32.5496 43.3894 16.8696C43.3894 14.9396 43.3894 14.9396 41.4694 14.9396C40.3894 14.9396 40.3894 14.9396 40.3894 16.0396C40.3994 23.9896 40.3994 31.9396 40.3994 39.8996ZM45.5994 40.0496C45.5994 47.7996 45.5994 55.5496 45.5994 63.2996C45.5994 65.2896 45.3294 65.0296 47.3294 65.0496C48.5894 65.0596 48.5994 65.0496 48.5994 63.7396C48.5994 48.1096 48.5994 32.4796 48.5994 16.8496C48.5994 14.9196 48.5994 14.9196 46.6694 14.9196C45.5994 14.9196 45.5994 14.9196 45.5994 16.0296C45.5994 24.0396 45.5994 32.0396 45.5994 40.0496ZM38.1994 40.0296C38.1994 32.0496 38.1994 24.0696 38.1994 16.0896C38.1994 15.8596 38.1994 15.6296 38.1894 15.3996C38.1894 15.2196 38.1394 15.0596 37.9494 14.9696C37.1894 14.5996 36.4594 15.0296 36.4594 15.8696C36.4594 31.9796 36.4594 48.0896 36.4494 64.2096C36.4494 64.8096 36.5994 65.0696 37.2494 65.0796C37.9794 65.0996 38.2094 64.8596 38.1994 64.1196C38.1894 56.0896 38.1994 48.0596 38.1994 40.0296ZM52.5394 40.0496C52.5394 31.9896 52.5294 23.9396 52.5494 15.8796C52.5494 15.1596 52.3394 14.9096 51.5994 14.8996C50.8494 14.8996 50.7894 15.2496 50.7994 15.8396C50.8194 19.5496 50.8094 23.2596 50.8094 26.9696C50.8094 39.3196 50.8094 51.6696 50.7994 64.0196C50.7994 64.6396 50.7994 65.0996 51.6594 65.0696C52.3694 65.0496 52.5594 64.8196 52.5594 64.1296C52.5294 56.1096 52.5394 48.0796 52.5394 40.0496ZM71.5694 65.0496C75.2294 65.0596 78.8794 65.0596 82.5394 65.0496C82.7694 65.0496 83.1194 65.1796 83.2094 64.8696C83.2794 64.6396 82.9894 64.4896 82.8194 64.3496C81.8794 63.5596 80.7994 63.2096 79.5794 63.2696C79.1494 63.2896 78.7994 63.3896 78.5694 63.8096C78.3094 64.2996 77.8494 64.4396 77.3294 64.2996C76.8294 64.1696 76.6594 63.7196 76.4594 63.3096C75.2494 60.9596 73.2994 59.7596 70.6794 59.7896C68.7194 59.8096 67.1094 60.6896 65.9094 62.2596C65.4494 62.8596 64.9394 63.1496 64.2094 62.7496C63.9494 62.6096 63.6694 62.6096 63.3894 62.6296C62.1394 62.7496 61.1294 63.3496 60.3094 64.2696C60.1494 64.4496 59.8494 64.6296 59.9694 64.8896C60.0894 65.1596 60.4294 65.0196 60.6694 65.0196C64.3094 65.0596 67.9394 65.0496 71.5694 65.0496ZM18.1794 65.0496H24.6594C26.0094 65.0496 27.3494 65.0596 28.6994 65.0396C28.9394 65.0396 29.2894 65.1696 29.3694 64.8696C29.4394 64.6196 29.1194 64.4596 28.9294 64.2996C28.3194 63.7796 27.5894 63.4696 26.8094 63.3096C26.3294 63.2096 25.8994 63.2396 25.4994 63.6596C24.9694 64.1996 24.3294 64.0796 23.8694 63.4696C23.7794 63.3496 23.7094 63.2096 23.6294 63.0796C22.2394 61.0396 20.3494 60.1196 17.8794 60.5096C16.3894 60.7396 15.2694 61.5496 14.3394 62.6996C13.7494 63.4296 13.2594 63.4696 12.5194 62.9096C12.3294 62.7696 12.1394 62.6696 11.9094 62.6396C10.1094 62.3896 8.59938 62.9496 7.39938 64.3096C7.23938 64.4896 6.94938 64.6796 7.09938 64.9396C7.20938 65.1396 7.51938 65.0296 7.74938 65.0296C11.2194 65.0596 14.6994 65.0496 18.1794 65.0496ZM27.4994 51.8296C25.4694 51.8296 23.4394 51.8396 21.4094 51.8196C20.8994 51.8096 20.6094 51.9596 20.5094 52.4996C20.3894 53.1996 20.2094 53.8896 20.0394 54.5696C19.9094 55.0896 20.1094 55.2496 20.6094 55.2496C24.9494 55.2396 29.2894 55.2396 33.6194 55.2496C34.0694 55.2496 34.2694 55.0796 34.2594 54.6196C34.2494 53.9596 34.2294 53.2996 34.2694 52.6396C34.3094 52.0096 34.0594 51.7996 33.4294 51.8096C31.4594 51.8496 29.4794 51.8296 27.4994 51.8296ZM61.8994 55.2496C63.9294 55.2496 65.9594 55.2496 67.9894 55.2496C69.0894 55.2496 69.0894 55.2496 68.8494 54.1496C68.7294 53.5796 68.5694 53.0196 68.4694 52.4496C68.3894 52.0396 68.2094 51.8296 67.7594 51.8296C63.6294 51.8396 59.4894 51.8396 55.3594 51.8296C54.8894 51.8296 54.7294 52.0496 54.7394 52.4796C54.7494 53.1096 54.7794 53.7496 54.7294 54.3796C54.6894 55.0296 54.8994 55.2796 55.5894 55.2596C57.6894 55.2196 59.7894 55.2496 61.8994 55.2496ZM28.0594 46.1096C29.8894 46.1096 31.7194 46.0996 33.5394 46.1096C34.0594 46.1096 34.2894 45.9396 34.2694 45.4096C34.2494 44.6996 34.2594 43.9896 34.2594 43.2796C34.2594 42.8596 34.0794 42.6896 33.6594 42.6896C30.1294 42.6996 26.5994 42.6996 23.0694 42.6896C22.6194 42.6896 22.4494 42.8796 22.3894 43.3096C22.2994 43.9596 22.1694 44.6096 22.0094 45.2496C21.8594 45.8796 22.0394 46.1296 22.7194 46.1196C24.5094 46.0896 26.2894 46.1096 28.0594 46.1096ZM60.8194 46.1096C62.6494 46.1096 64.4794 46.0896 66.3094 46.1196C66.9394 46.1296 67.1194 45.8996 66.9794 45.2996C66.8194 44.6296 66.6894 43.9596 66.5994 43.2796C66.5394 42.8296 66.3194 42.6896 65.8894 42.6896C62.3894 42.6996 58.8794 42.6996 55.3794 42.6896C54.9294 42.6896 54.7294 42.8596 54.7394 43.3196C54.7494 43.9796 54.7694 44.6396 54.7294 45.2996C54.6894 45.9396 54.9494 46.1396 55.5694 46.1296C57.3194 46.0896 59.0694 46.1096 60.8194 46.1096ZM28.8694 36.9896C30.3894 36.9896 31.9194 36.9796 33.4494 36.9996C34.0094 37.0096 34.3194 36.8596 34.2794 36.2296C34.2494 35.5996 34.2594 34.9596 34.2794 34.3196C34.2894 33.8296 34.0694 33.6496 33.5894 33.6496C30.5894 33.6596 27.5894 33.6596 24.5894 33.6496C24.1394 33.6496 23.9494 33.8496 23.8894 34.2696C23.7994 34.9196 23.7394 35.5896 23.5894 36.2296C23.4494 36.8296 23.6494 37.0096 24.2294 37.0096C25.7694 36.9796 27.3194 36.9896 28.8694 36.9896ZM60.1094 36.9896C61.6894 36.9896 63.2594 36.9896 64.8394 36.9896C65.1294 36.9896 65.5194 37.0296 65.4494 36.5496C65.3394 35.7496 65.1994 34.9496 65.0794 34.1396C65.0194 33.7496 64.7794 33.6596 64.4294 33.6596C61.4094 33.6596 58.3794 33.6696 55.3594 33.6596C54.9094 33.6596 54.7194 33.8596 54.7294 34.3096C54.7394 34.9396 54.7594 35.5796 54.7194 36.2196C54.6894 36.8296 54.9494 37.0196 55.5294 37.0096C57.0594 36.9696 58.5894 36.9896 60.1094 36.9896ZM29.4494 27.9496C30.8194 27.9496 32.1894 27.9296 33.5594 27.9596C34.0894 27.9696 34.2894 27.7696 34.2794 27.2496C34.2594 26.5696 34.2594 25.8796 34.2794 25.1996C34.2894 24.7096 34.0794 24.5296 33.5994 24.5296C30.9594 24.5396 28.3294 24.5396 25.6894 24.5296C25.2494 24.5296 25.0494 24.6896 25.0194 25.1496C24.9894 25.7796 24.9094 26.4096 24.8294 27.0396C24.7194 27.9496 24.7094 27.9496 25.6494 27.9496C26.9194 27.9496 28.1894 27.9496 29.4494 27.9496ZM59.5394 27.9496C60.8794 27.9496 62.2294 27.9296 63.5694 27.9596C64.1594 27.9696 64.3194 27.7796 64.2094 27.1896C64.0794 26.5196 64.0294 25.8396 63.9894 25.1496C63.9594 24.6996 63.7694 24.5296 63.3294 24.5296C60.6694 24.5396 58.0094 24.5396 55.3494 24.5296C54.8794 24.5296 54.7294 24.7596 54.7394 25.1896C54.7494 25.8696 54.7594 26.5596 54.7394 27.2396C54.7194 27.7596 54.9194 27.9596 55.4494 27.9496C56.8094 27.9296 58.1794 27.9496 59.5394 27.9496ZM27.5694 57.4296C25.6694 57.4296 23.7594 57.4296 21.8594 57.4296C21.6294 57.4296 21.3994 57.4296 21.1794 57.4596C20.7794 57.5096 20.7594 57.8496 20.6994 58.1396C20.6394 58.4696 20.9094 58.4996 21.1194 58.5796C21.4494 58.7096 21.7994 58.7596 22.1594 58.7596C25.9194 58.7496 29.6694 58.7496 33.4294 58.7596C33.8894 58.7596 34.2894 58.7696 34.2794 58.1096C34.2694 57.4796 33.9194 57.4196 33.4394 57.4196C31.4794 57.4296 29.5294 57.4296 27.5694 57.4296ZM61.5094 57.4296C59.5294 57.4296 57.5494 57.4296 55.5594 57.4296C55.1794 57.4296 54.7794 57.3896 54.7294 57.9596C54.6794 58.5496 54.8794 58.7696 55.4994 58.7696C58.7994 58.7496 62.1094 58.7496 65.4094 58.7696C66.1894 58.7796 66.9294 58.7196 67.5994 58.2896C67.8294 58.1396 68.2994 58.1696 68.1694 57.7296C68.0594 57.3496 67.6694 57.4396 67.3794 57.4396C65.4194 57.4296 63.4694 57.4296 61.5094 57.4296ZM60.9194 61.0996C60.8094 61.0096 60.7694 60.9596 60.7294 60.9596C59.4594 60.9496 58.1894 60.9396 56.9194 60.9396C54.7194 60.9396 54.7194 60.9396 54.7194 63.1496C54.7194 65.1596 54.9794 65.3696 56.9894 65.0496C57.2094 65.0096 57.3894 64.9496 57.4794 64.7496C58.1994 63.1296 59.3294 61.9096 60.9194 61.0996ZM24.9594 61.1196C27.7794 60.8896 30.0494 61.7596 31.5594 64.0696C32.0894 64.8796 32.6394 65.1396 33.5294 65.0696C34.0994 65.0296 34.2894 64.8196 34.2694 64.2796C34.2394 63.4396 34.2294 62.5996 34.2694 61.7596C34.2994 61.1096 34.0194 60.9296 33.4094 60.9296C30.7894 60.9496 28.1694 60.9396 25.5594 60.9396C25.3994 60.9496 25.2094 60.8996 24.9594 61.1196ZM29.7794 17.3596C28.5394 17.3596 27.2994 17.3896 26.0494 17.3496C25.3594 17.3296 25.2694 17.6796 25.2694 18.2396C25.2694 18.7996 25.3494 19.1496 26.0494 19.1396C28.5294 19.1096 31.0194 19.1096 33.4994 19.1396C34.1994 19.1496 34.2794 18.8096 34.2794 18.2396C34.2794 17.6896 34.2194 17.3196 33.5094 17.3396C32.2694 17.3896 31.0194 17.3596 29.7794 17.3596ZM59.0594 19.1296C60.2294 19.1296 61.3994 19.0896 62.5594 19.1396C63.2894 19.1696 63.3894 18.8196 63.3794 18.2196C63.3794 17.6396 63.2694 17.3396 62.5894 17.3496C60.2294 17.3796 57.8694 17.3796 55.5094 17.3496C54.8294 17.3396 54.7194 17.6496 54.7094 18.2296C54.6994 18.8496 54.8394 19.1696 55.5494 19.1496C56.7194 19.0896 57.8894 19.1296 59.0594 19.1296ZM28.4094 49.6196C30.0894 49.6196 31.7594 49.6096 33.4394 49.6196C33.9194 49.6196 34.2794 49.5896 34.2794 48.9496C34.2694 48.2896 33.8694 48.2996 33.4094 48.3096C31.6294 48.3196 29.8494 48.3096 28.0794 48.3096C26.5794 48.3096 25.0794 48.3396 23.5894 48.2996C22.9294 48.2896 22.8294 48.7096 22.7894 49.1696C22.7294 49.7796 23.2394 49.5996 23.5394 49.6096C25.1594 49.6296 26.7894 49.6196 28.4094 49.6196ZM60.5194 49.6196C62.2194 49.6196 63.9194 49.6096 65.6294 49.6296C66.2194 49.6396 66.2994 49.4096 66.1794 48.8796C66.0594 48.3796 65.7594 48.3196 65.3494 48.3196C62.0694 48.3296 58.7994 48.3296 55.5194 48.3196C55.0594 48.3196 54.7394 48.3796 54.7294 48.9696C54.7294 49.5396 55.0094 49.6396 55.4894 49.6396C57.1594 49.6096 58.8394 49.6196 60.5194 49.6196ZM29.4794 39.1896C28.0294 39.1896 26.5894 39.1996 25.1394 39.1896C24.4594 39.1796 24.5594 39.7096 24.5094 40.0996C24.4394 40.6096 24.8594 40.4996 25.1294 40.4996C27.9194 40.5096 30.7094 40.4996 33.4994 40.5096C33.9694 40.5096 34.2694 40.3996 34.2694 39.8396C34.2694 39.2696 33.9794 39.1696 33.5094 39.1796C32.1694 39.1996 30.8294 39.1896 29.4794 39.1896ZM59.6694 40.5096C61.0394 40.5096 62.4094 40.4796 63.7794 40.5196C64.4494 40.5396 64.5394 40.2696 64.4394 39.6996C64.3494 39.2196 64.0394 39.1796 63.6594 39.1796C60.9394 39.1796 58.2294 39.1896 55.5094 39.1796C55.0494 39.1796 54.7294 39.2296 54.7194 39.8196C54.7194 40.4396 55.0594 40.5096 55.5494 40.5096C56.9294 40.4996 58.2994 40.5096 59.6694 40.5096ZM30.0294 31.4596C31.1994 31.4596 32.3594 31.4496 33.5194 31.4696C34.0094 31.4796 34.2794 31.3596 34.2694 30.7996C34.2594 30.2296 33.9594 30.1196 33.4894 30.1396C33.0594 30.1496 32.6294 30.1396 32.1994 30.1396C30.3294 30.1396 28.4494 30.1596 26.5794 30.1296C25.8794 30.1196 25.8894 30.5996 25.8394 31.0396C25.7794 31.6096 26.2394 31.4496 26.5294 31.4596C27.6994 31.4696 28.8694 31.4596 30.0294 31.4596ZM58.9294 30.1396C57.8394 30.1396 56.7494 30.1396 55.6594 30.1396C55.1994 30.1396 54.7394 30.0796 54.7194 30.7896C54.7094 31.4996 55.1394 31.4696 55.6194 31.4696C57.8694 31.4596 60.1294 31.4696 62.3794 31.4596C62.6794 31.4596 63.1794 31.6696 63.1494 31.0496C63.1194 30.5596 63.0694 30.0996 62.3494 30.1296C61.2094 30.1696 60.0694 30.1396 58.9294 30.1396ZM30.6194 21.3296C29.5994 21.3296 28.5894 21.3296 27.5694 21.3296C27.1994 21.3296 26.8394 21.3196 26.8494 21.8596C26.8594 22.3596 27.2194 22.3296 27.5494 22.3296C29.5594 22.3296 31.5594 22.3296 33.5694 22.3296C33.9094 22.3296 34.2494 22.3296 34.2594 21.8396C34.2694 21.3596 33.9494 21.3296 33.5894 21.3296C32.5994 21.3296 31.6094 21.3296 30.6194 21.3296ZM58.4294 22.3296C59.4694 22.3296 60.5094 22.3296 61.5494 22.3296C61.8894 22.3296 62.1494 22.2596 62.1494 21.8296C62.1494 21.4096 61.8994 21.3296 61.5594 21.3296C59.4994 21.3296 57.4494 21.3296 55.3894 21.3296C55.0694 21.3296 54.7694 21.3496 54.7494 21.7896C54.7294 22.2496 55.0094 22.3296 55.3894 22.3296C56.3994 22.3296 57.4094 22.3296 58.4294 22.3296Z" fill="#767A61"/>
</svg>
