<svg width="89" height="70" viewBox="0 0 89 70" fill="none" xmlns="http://www.w3.org/2000/svg">
<path d="M44.4907 67.2495C33.5307 67.2495 22.5707 67.2495 11.6107 67.2495C11.2907 67.2495 10.9707 67.2595 10.6607 67.1995C10.0307 67.0795 9.66069 66.6895 9.66069 66.0195C9.66069 63.7995 9.65069 61.5795 9.66069 59.3595C9.66069 58.5795 10.0807 58.1695 10.8907 58.1195C11.4807 58.0795 12.0707 58.0995 12.6607 58.1095C13.0307 58.1195 13.2007 57.9495 13.1807 57.5795C13.1707 57.4195 13.1807 57.2595 13.1807 57.0995C13.1807 45.1395 13.1807 33.1895 13.1907 21.2295C13.1907 20.6695 13.0907 20.1795 12.7907 19.6895C12.1807 18.6995 12.0607 17.5895 11.9507 16.4495C11.7507 14.4395 12.3907 12.8795 13.7107 11.3495C16.0207 8.67951 18.1307 5.83951 20.3007 3.04951C20.7307 2.49951 21.2207 2.24951 21.9207 2.24951C36.9807 2.25951 52.0407 2.25951 67.1007 2.24951C67.8007 2.24951 68.3007 2.50951 68.7207 3.04951C71.3407 6.39951 73.9807 9.74951 76.6207 13.0895C76.8807 13.4195 77.0507 13.7695 77.0307 14.2095C76.9707 15.4495 77.1507 16.6995 76.9007 17.9295C76.7907 18.4695 76.6607 19.0095 76.3407 19.4495C75.8607 20.1195 75.8107 20.8495 75.8107 21.6395C75.8207 33.4595 75.8207 45.2795 75.8207 57.0995C75.8207 58.0995 75.8207 58.0895 76.8307 58.0995C77.2807 58.0995 77.7407 58.0795 78.1907 58.1195C78.9507 58.1895 79.3407 58.6095 79.3407 59.3695C79.3507 61.5695 79.3507 63.7595 79.3407 65.9595C79.3407 66.7195 78.9507 67.1295 78.2007 67.2295C77.9107 67.2695 77.6107 67.2495 77.3207 67.2495C66.3707 67.2495 55.4307 67.2495 44.4907 67.2495ZM73.5307 40.1195C73.5307 34.3895 73.5307 28.6595 73.5407 22.9295C73.5407 22.4195 73.5307 22.2195 72.8907 22.4295C70.2607 23.2595 67.8707 22.8495 65.9107 20.7995C65.4907 20.3595 65.2807 20.4295 64.9007 20.8295C62.2907 23.5295 58.0707 23.5195 55.4407 20.8095C55.0807 20.4395 54.8807 20.3695 54.4807 20.7795C51.7807 23.5595 47.6507 23.5495 44.9307 20.7595C44.5607 20.3795 44.3707 20.4095 44.0207 20.7695C41.3407 23.5195 37.1707 23.5395 34.5207 20.7995C34.1107 20.3795 33.9007 20.4095 33.5107 20.8095C30.8907 23.5195 26.6807 23.5195 24.0607 20.7995C23.6607 20.3795 23.4507 20.3995 23.0507 20.8095C21.1207 22.8095 18.7807 23.2195 16.1907 22.4795C15.4407 22.2695 15.4507 22.2395 15.4507 23.0195C15.4507 30.6095 15.4507 38.1895 15.4507 45.7795C15.4507 49.6295 15.4607 53.4795 15.4407 57.3295C15.4407 57.9295 15.6207 58.1195 16.2107 58.1095C18.2907 58.0795 20.3807 58.0895 22.4607 58.0995C22.9507 58.0995 23.1507 57.9295 23.1407 57.4295C23.1207 56.3895 23.1307 55.3495 23.1307 54.2995C23.1307 53.0695 23.1307 53.0695 21.9107 52.8495C19.9607 52.4995 18.8407 51.4195 18.5707 49.4495C18.3007 47.4795 18.5707 45.5695 19.3707 43.7395C19.7607 42.8495 19.9207 41.9395 19.7307 40.9595C19.5507 40.0195 19.2107 39.1295 18.8407 38.2595C18.4907 37.4495 18.1507 36.6395 18.0507 35.7395C17.9307 34.6895 18.2907 33.8795 19.2107 33.3295C19.7807 32.9895 20.4107 32.7995 21.0307 32.5995C21.3707 32.4895 21.7007 32.3695 21.7607 31.8995C21.8507 31.1595 22.3507 30.7295 23.0307 30.5695C23.8707 30.3695 24.7407 30.3895 25.5907 30.5495C26.2307 30.6695 26.7007 31.0795 26.8607 31.7395C27.0107 32.3895 27.4307 32.6795 28.0307 32.8095C28.3207 32.8695 28.6007 32.9495 28.8807 33.0295C30.1407 33.4295 30.6807 34.3095 30.5607 35.6095C30.4207 37.0595 29.7707 38.3395 29.2607 39.6695C28.7607 40.9695 28.6407 42.2995 29.2107 43.5695C30.0007 45.3195 30.2007 47.1195 30.1207 48.9995C30.0407 50.9695 29.0207 52.2695 27.1007 52.7495C26.7707 52.8295 26.4407 52.9195 26.1007 52.9295C25.5707 52.9395 25.4807 53.2095 25.4807 53.6695C25.5007 54.8895 25.5107 56.1195 25.4807 57.3395C25.4607 57.8995 25.6607 58.0895 26.2207 58.0795C28.3907 58.0595 30.5707 58.0695 32.7407 58.0695C33.7007 58.0695 33.7007 58.0695 33.7007 57.0895C33.7007 47.9595 33.7007 38.8395 33.7007 29.7095C33.7007 29.4595 33.6907 29.2095 33.7107 28.9595C33.7707 28.3495 34.1007 27.9495 34.7107 27.8395C34.9507 27.7895 35.2007 27.7795 35.4507 27.7795C41.4707 27.7795 47.5007 27.7795 53.5207 27.7795C53.7407 27.7795 53.9707 27.7895 54.2007 27.8295C54.8407 27.9395 55.1907 28.3395 55.2407 28.9895C55.2607 29.2395 55.2507 29.4895 55.2507 29.7395C55.2507 38.8895 55.2507 48.0395 55.2507 57.1795C55.2507 57.6395 55.1707 58.0795 55.9007 58.0695C58.2107 58.0395 60.5207 58.0495 62.8307 58.0595C63.2907 58.0595 63.4807 57.8995 63.4707 57.4295C63.4507 56.2095 63.4407 54.9795 63.4807 53.7595C63.5007 53.1495 63.3207 52.9295 62.6807 52.9395C60.9607 52.9795 59.2407 52.9595 57.5207 52.9495C56.4307 52.9395 55.9607 52.3195 56.2307 51.2495C56.3307 50.8595 56.4607 50.4695 56.6207 50.0995C57.6907 47.5995 58.9507 45.1895 60.4207 42.8995C60.9307 42.1095 61.2407 41.2995 61.1707 40.3495C61.1407 39.9095 60.9907 39.7995 60.5807 39.9095C59.8007 40.1295 59.0507 39.8995 58.3207 39.6495C57.7107 39.4395 57.4207 38.9095 57.5907 38.2995C57.9707 36.9295 58.3807 35.5495 59.0307 34.2795C59.6507 33.0595 60.5407 32.1895 62.0307 32.1795C62.4907 32.1795 62.7207 31.9095 62.7707 31.4595C62.8407 30.7595 63.3007 30.4895 63.9307 30.4495C64.4907 30.4195 65.0607 30.4495 65.6307 30.4395C66.3507 30.4195 66.8107 30.7395 66.9707 31.4295C67.0807 31.9195 67.3507 32.1295 67.8307 32.2395C69.1107 32.5495 70.1707 33.2195 70.8607 34.3695C71.6607 35.7095 71.8907 37.2095 71.9407 38.7395C71.9607 39.4395 71.4907 39.8695 70.7807 39.8995C70.2407 39.9295 69.6907 39.9395 69.1507 39.8995C68.5607 39.8595 68.4007 40.1295 68.4307 40.6695C68.4707 41.4895 68.8207 42.1895 69.2107 42.8895C70.6807 45.5195 72.1207 48.1595 73.0007 51.0695C73.3707 52.3195 72.8907 52.9495 71.6007 52.9495C69.9207 52.9595 68.2507 52.9695 66.5707 52.9395C66.0207 52.9295 65.8007 53.0995 65.8207 53.6695C65.8507 54.8695 65.8507 56.0695 65.8207 57.2695C65.8007 57.8595 66.0007 58.0695 66.6007 58.0595C68.5907 58.0295 70.5907 58.0495 72.5807 58.0495C73.5207 58.0495 73.5207 58.0495 73.5207 57.1295C73.5307 51.4895 73.5307 45.8095 73.5307 40.1195ZM52.9207 44.1295C52.9207 39.7795 52.9207 35.4395 52.9207 31.0895C52.9207 30.1695 52.9207 30.1695 52.0407 30.1695C47.0207 30.1695 41.9907 30.1795 36.9707 30.1595C36.3007 30.1595 36.0707 30.3295 36.0707 31.0295C36.0907 39.7695 36.0907 48.4995 36.0707 57.2395C36.0707 57.9395 36.3007 58.1195 36.9707 58.1195C41.9707 58.0995 46.9707 58.1095 51.9707 58.1095C52.9207 58.1095 52.9207 58.1095 52.9207 57.1795C52.9207 52.8195 52.9207 48.4795 52.9207 44.1295ZM44.5007 60.4595H25.8107C21.4407 60.4595 17.0707 60.4695 12.7007 60.4495C12.1207 60.4495 11.8907 60.6095 11.9207 61.2195C11.9707 62.0995 11.9307 62.9895 11.9307 63.8695C11.9307 64.8895 11.9307 64.8895 12.9807 64.8895C33.9907 64.8895 55.0107 64.8895 76.0207 64.8895C76.1307 64.8895 76.2507 64.8795 76.3607 64.8895C76.8807 64.9495 77.0907 64.7495 77.0707 64.1995C77.0307 63.2695 77.0607 62.3395 77.0607 61.4095C77.0607 60.4595 77.0607 60.4595 76.0807 60.4595C65.5507 60.4595 55.0207 60.4595 44.5007 60.4595ZM24.3907 50.6095V50.6195C24.6807 50.6195 24.9807 50.6195 25.2707 50.6195C25.5907 50.6195 25.9007 50.6295 26.2207 50.5995C27.1807 50.5195 27.6307 50.0795 27.7807 49.1295C28.0107 47.6095 27.7907 46.1395 27.1807 44.7495C26.2707 42.6695 26.3607 40.6195 27.2107 38.5595C27.5407 37.7695 27.8307 36.9595 28.1507 36.1595C28.3907 35.5695 28.2507 35.2595 27.6007 35.0795C26.4507 34.7595 25.3907 34.2895 24.8007 33.1195C24.6007 32.7195 24.1107 32.7295 23.8807 33.1295C23.2507 34.2295 22.2507 34.8095 21.0707 35.0995C20.4607 35.2495 20.3607 35.5995 20.5307 36.0995C20.7507 36.7395 21.0207 37.3595 21.2707 37.9995C22.0807 40.0395 22.5907 42.1295 21.6707 44.2595C21.0407 45.7295 20.7907 47.2395 20.8707 48.8195C20.9307 50.0095 21.3707 50.5095 22.5507 50.5995C23.1607 50.6495 23.7807 50.6095 24.3907 50.6095ZM60.7307 36.2495C61.9707 35.6695 62.5807 35.9595 62.8907 37.1695C63.0607 37.8495 63.2207 38.5295 63.3707 39.2195C63.7307 40.8395 63.5707 42.3895 62.6407 43.7795C61.3207 45.7395 60.3107 47.8695 59.2507 49.9695C58.9407 50.5995 58.9607 50.6295 59.6707 50.6395C62.9707 50.6395 66.2807 50.6395 69.5907 50.6395C70.4507 50.6395 70.4607 50.6095 70.1707 49.8095C69.4707 47.8795 68.4007 46.1395 67.3407 44.3995C65.9807 42.1495 65.7307 39.8795 66.9007 37.4895C67.1207 37.0395 67.2907 36.5595 67.7107 36.2595C68.1807 35.9195 68.6707 36.0995 69.2107 36.3595C68.8307 35.2195 68.1307 34.6195 67.0507 34.4995C66.0407 34.3895 65.1807 34.1095 64.9607 32.9495C64.9607 32.9295 64.8807 32.9295 64.8207 32.8995C64.4307 33.8095 63.7007 34.4095 62.7507 34.4295C61.5407 34.4795 61.1407 35.2395 60.7307 36.2495ZM43.3607 8.74951C43.3607 7.56951 43.3507 6.39951 43.3707 5.21951C43.3807 4.78951 43.2307 4.60951 42.7807 4.60951C41.2907 4.62951 39.7907 4.61951 38.3007 4.60951C37.9007 4.60951 37.6907 4.72951 37.5807 5.14951C36.9707 7.51951 36.3407 9.87951 35.7107 12.2395C35.6007 12.6595 35.6507 12.8695 36.1607 12.8595C38.3607 12.8395 40.5507 12.8395 42.7507 12.8595C43.2207 12.8595 43.3907 12.6795 43.3807 12.2195C43.3507 11.0595 43.3607 9.90951 43.3607 8.74951ZM45.6307 8.73951C45.6307 9.86951 45.6607 11.0095 45.6207 12.1395C45.6007 12.7195 45.8207 12.8795 46.3707 12.8695C48.5007 12.8495 50.6307 12.8495 52.7607 12.8695C53.3107 12.8795 53.4207 12.7095 53.2907 12.1895C52.6607 9.87951 52.0507 7.55951 51.4507 5.22951C51.3307 4.76951 51.1207 4.59951 50.6507 4.60951C49.2007 4.62951 47.7507 4.62951 46.3007 4.60951C45.8107 4.59951 45.6107 4.75951 45.6207 5.26951C45.6507 6.42951 45.6307 7.57951 45.6307 8.73951ZM29.3207 12.8495C30.4107 12.8495 31.4907 12.8395 32.5807 12.8595C32.9907 12.8695 33.2007 12.7095 33.3007 12.3195C33.9107 9.94951 34.5207 7.58951 35.1507 5.22951C35.2807 4.74951 35.1007 4.61951 34.6507 4.61951C33.2007 4.62951 31.7507 4.62951 30.3007 4.61951C29.9607 4.61951 29.7607 4.75951 29.6107 5.04951C28.3407 7.47951 27.0707 9.89951 25.7807 12.3195C25.5507 12.7595 25.6707 12.8695 26.1207 12.8595C27.1907 12.8395 28.2507 12.8595 29.3207 12.8495ZM59.5907 12.8595C60.7007 12.8595 61.8107 12.8495 62.9207 12.8595C63.3507 12.8695 63.4407 12.7395 63.2307 12.3495C61.9507 9.92951 60.6707 7.50951 59.4007 5.07951C59.2307 4.75951 59.0207 4.61951 58.6507 4.61951C57.2207 4.62951 55.8007 4.62951 54.3707 4.61951C53.8907 4.61951 53.7207 4.74951 53.8507 5.26951C54.4807 7.60951 55.0907 9.94951 55.6907 12.2895C55.8007 12.7095 56.0107 12.8795 56.4507 12.8695C57.5007 12.8395 58.5507 12.8495 59.5907 12.8595ZM69.7207 12.8595C70.7407 12.8595 71.7607 12.8595 72.7707 12.8595C72.9407 12.8595 73.1707 12.9495 73.2607 12.7395C73.3307 12.5795 73.1507 12.4595 73.0607 12.3395C71.1407 9.90951 69.2207 7.47951 67.3107 5.03951C67.0807 4.73951 66.8207 4.61951 66.4507 4.61951C65.1207 4.62951 63.7807 4.63951 62.4507 4.61951C61.9807 4.60951 61.8207 4.69951 62.0807 5.17951C63.3607 7.56951 64.6207 9.96951 65.8707 12.3795C66.0507 12.7295 66.2907 12.8695 66.6707 12.8695C67.6807 12.8395 68.7007 12.8495 69.7207 12.8595ZM19.2807 12.8495C20.3007 12.8495 21.3207 12.8395 22.3407 12.8495C22.7307 12.8595 22.9707 12.7095 23.1507 12.3695C24.4107 9.95951 25.6707 7.55951 26.9407 5.15951C27.1607 4.74951 27.1007 4.60951 26.6207 4.60951C25.2407 4.62951 23.8607 4.61951 22.4807 4.60951C22.1907 4.60951 21.9707 4.69951 21.7807 4.93951C19.8407 7.41951 17.8907 9.88951 15.9407 12.3595C15.8507 12.4795 15.6707 12.5995 15.7907 12.7695C15.8907 12.9095 16.0807 12.8495 16.2407 12.8495C17.2407 12.8595 18.2607 12.8595 19.2807 12.8495ZM49.7807 15.2195C48.6007 15.2195 47.4307 15.2195 46.2507 15.2195C45.9507 15.2195 45.6707 15.2095 45.6307 15.6495C45.3507 19.1895 47.8707 21.1195 51.0807 20.2895C52.9007 19.8195 53.8707 18.1595 53.8407 15.8895C53.8307 15.3995 53.6907 15.1995 53.1807 15.2095C52.0507 15.2395 50.9107 15.2195 49.7807 15.2195ZM28.8107 15.2195C27.6607 15.2195 26.5007 15.2195 25.3507 15.2195C25.0507 15.2195 24.7507 15.1895 24.7207 15.6395C24.4807 18.9495 26.6307 21.0495 29.9607 20.3495C31.9307 19.9395 32.9807 18.2095 32.9207 15.8395C32.9107 15.3595 32.7307 15.2095 32.2707 15.2195C31.1107 15.2295 29.9607 15.2195 28.8107 15.2195ZM39.3407 15.2195C38.1607 15.2195 36.9907 15.2195 35.8107 15.2195C35.5207 15.2195 35.2107 15.1895 35.1807 15.6295C34.9207 18.9295 37.1007 21.0495 40.4107 20.3495C42.3807 19.9395 43.4407 18.2095 43.3807 15.8395C43.3707 15.3595 43.2007 15.2095 42.7407 15.2195C41.6007 15.2295 40.4707 15.2195 39.3407 15.2195ZM70.7007 15.2195C69.5207 15.2195 68.3507 15.2195 67.1707 15.2195C66.8707 15.2195 66.5907 15.2095 66.5507 15.6495C66.2707 19.1795 68.7707 21.1195 71.9907 20.2995C73.8007 19.8395 74.7707 18.1595 74.7507 15.8895C74.7407 15.3995 74.6007 15.1995 74.0907 15.2095C72.9707 15.2395 71.8407 15.2195 70.7007 15.2195ZM18.4107 15.2195C17.2307 15.2195 16.0607 15.2195 14.8807 15.2195C14.5807 15.2195 14.2807 15.1995 14.2507 15.6395C14.0207 18.9695 16.2007 21.0495 19.4907 20.3495C21.4707 19.9295 22.5107 18.2195 22.4407 15.8395C22.4307 15.3595 22.2507 15.2095 21.7907 15.2195C20.6707 15.2295 19.5407 15.2195 18.4107 15.2195ZM60.2207 15.2195C59.0407 15.2195 57.8707 15.2195 56.6907 15.2195C56.3807 15.2195 56.1207 15.2395 56.0907 15.6695C55.8607 19.0295 58.1207 21.0895 61.3607 20.3295C63.7607 19.7695 64.4107 17.6895 64.2807 15.5995C64.2507 15.1995 63.9607 15.2195 63.6807 15.2195C62.5307 15.2195 61.3807 15.2195 60.2207 15.2195Z" fill="#767A61"/>
</svg>
