<svg width="89" height="70" viewBox="0 0 89 70" fill="none" xmlns="http://www.w3.org/2000/svg">
<path d="M11.9908 44.3495C11.9908 37.9095 11.9808 31.4695 12.0008 25.0295C12.0008 24.4095 11.8308 24.0995 11.2408 23.8295C9.25075 22.9495 8.14075 21.3495 8.11075 19.1895C8.04075 14.0595 8.08075 8.91951 8.09075 3.78951C8.09075 2.93951 8.44075 2.46951 9.09075 2.30951C9.82075 2.12951 10.5008 2.62951 10.6008 3.45951C10.6608 3.93951 10.6308 4.42951 10.6308 4.91951C10.6308 7.65951 10.6408 10.4095 10.6308 13.1495C10.6308 13.6695 10.7108 13.9795 11.3408 13.9695C11.9608 13.9595 11.9908 13.6295 11.9908 13.1595C11.9808 10.1395 11.9908 7.11951 11.9908 4.08951C11.9908 2.89951 12.4208 2.27951 13.2408 2.25951C14.0808 2.23951 14.5308 2.88951 14.5308 4.11951C14.5308 7.13951 14.5408 10.1595 14.5208 13.1795C14.5208 13.7495 14.6908 13.9795 15.2808 13.9495C15.7308 13.9295 15.8908 13.7495 15.8908 13.3095C15.8808 12.0495 15.8908 10.7995 15.8908 9.53951C15.8908 7.69951 15.8908 5.86951 15.8908 4.02951C15.8908 3.69951 15.8908 3.37951 16.0108 3.06951C16.2208 2.52951 16.6308 2.24951 17.1908 2.25951C17.7208 2.26951 18.1108 2.53951 18.3208 3.04951C18.4508 3.37951 18.4508 3.72951 18.4508 4.07951C18.4508 7.09951 18.4608 10.1195 18.4408 13.1395C18.4408 13.6795 18.5608 13.9595 19.1708 13.9395C19.7408 13.9295 19.8108 13.6395 19.8008 13.1895C19.7908 10.5395 19.8008 7.88951 19.8008 5.23951C19.8008 4.72951 19.7908 4.21951 19.8108 3.70951C19.8408 2.80951 20.3408 2.24951 21.0808 2.24951C21.8108 2.24951 22.3408 2.81951 22.3508 3.70951C22.3708 6.19951 22.3608 8.67951 22.3608 11.1695C22.3608 13.6995 22.3708 16.2395 22.3608 18.7695C22.3508 21.1895 21.2808 22.9595 19.0108 23.9095C18.5108 24.1195 18.4508 24.4295 18.4508 24.8795C18.4608 28.1995 18.4508 31.5295 18.4508 34.8495C18.4508 44.4295 18.4508 53.9995 18.4508 63.5795C18.4508 65.5295 17.4908 66.8095 15.8108 67.1595C13.8208 67.5695 12.0308 66.0395 12.0108 63.8495C11.9908 61.3395 12.0008 58.8295 12.0008 56.3195C11.9908 52.3395 11.9908 48.3395 11.9908 44.3495ZM14.5408 44.3695C14.5408 50.7095 14.5408 57.0595 14.5508 63.4095C14.5508 63.9195 14.3408 64.6695 15.2008 64.6795C16.0708 64.6995 15.8908 63.9595 15.8908 63.4395C15.9008 56.7495 15.9008 50.0495 15.9008 43.3595C15.9008 37.2895 15.8908 31.2295 15.9108 25.1595C15.9108 24.5595 15.7808 24.2595 15.1008 24.2995C14.4208 24.3395 14.5508 24.8095 14.5508 25.1995C14.5408 31.5895 14.5408 37.9795 14.5408 44.3695ZM15.2708 16.4995C13.9508 16.4995 12.6208 16.5095 11.3008 16.4895C10.8408 16.4795 10.6108 16.6295 10.6308 17.1295C10.6508 17.8495 10.6208 18.5695 10.6508 19.2895C10.7008 20.6495 11.7408 21.7095 13.1108 21.7395C14.5308 21.7695 15.9408 21.7695 17.3608 21.7395C18.7208 21.6995 19.7508 20.6395 19.8008 19.2695C19.8208 18.5695 19.7908 17.8795 19.8208 17.1795C19.8408 16.6595 19.6308 16.4795 19.1208 16.4895C17.8308 16.5095 16.5508 16.4995 15.2708 16.4995Z" fill="#767A61"/>
<path d="M44.4921 59.4594C30.7221 59.2994 19.7921 48.4294 19.8321 34.6794C19.8721 20.9394 30.8521 10.0394 44.5521 10.0694C58.2921 10.0994 69.2021 21.0794 69.1821 34.7794C69.1621 48.5094 58.2421 59.3094 44.4921 59.4594ZM22.3521 34.7694C22.3521 47.0294 32.2021 56.8994 44.4521 56.9094C56.7721 56.9194 66.6621 47.0394 66.6621 34.7294C66.6621 22.4494 56.7821 12.5894 44.4821 12.5994C32.1921 12.5994 22.3421 22.4594 22.3521 34.7694Z" fill="#767A61"/>
<path d="M70.5709 33.8794C70.5709 24.0994 70.5709 14.3194 70.5709 4.52943C70.5709 4.26943 70.5609 4.01943 70.5709 3.75943C70.6109 2.63943 71.2408 2.11943 72.3508 2.26943C74.2308 2.50943 75.6009 3.56943 76.7209 5.00943C78.6609 7.50943 79.6209 10.4394 80.2509 13.4894C80.7409 15.8594 80.9409 18.2594 80.9409 20.6894C80.9309 27.5894 80.9409 34.4894 80.9409 41.3894C80.9409 42.9194 80.5708 43.2894 79.0608 43.2994C78.6608 43.2994 78.2708 43.3394 77.8808 43.2894C77.1808 43.2094 77.0308 43.5194 77.0308 44.1694C77.0508 50.6794 77.0409 57.1794 77.0409 63.6894C77.0409 64.9594 76.6308 66.0194 75.5308 66.7294C73.4409 68.0794 70.7808 66.6794 70.5908 64.1294C70.5708 63.8494 70.5809 63.5694 70.5809 63.2894C70.5709 53.4894 70.5709 43.6894 70.5709 33.8794ZM73.1209 22.9694C73.1209 28.6394 73.1309 34.3094 73.1109 39.9794C73.1109 40.6394 73.2909 40.8794 73.9709 40.8494C75.1809 40.7994 76.3908 40.8094 77.5908 40.8494C78.2108 40.8694 78.3909 40.6594 78.3909 40.0494C78.3709 32.9194 78.4008 25.7794 78.3508 18.6494C78.3308 15.8194 77.8009 13.0594 76.8209 10.3994C76.1609 8.61943 75.3208 6.93943 73.8808 5.63943C73.6908 5.46943 73.4909 5.17943 73.2609 5.25943C72.9809 5.35943 73.1308 5.70943 73.1308 5.94943C73.1208 11.6294 73.1209 17.2994 73.1209 22.9694ZM74.4709 53.9094C74.4709 50.6394 74.4509 47.3594 74.4809 44.0894C74.4909 43.4094 74.2209 43.2594 73.6109 43.2994C72.9609 43.3394 73.1109 43.8094 73.1109 44.1594C73.1009 50.6394 73.1009 57.1194 73.1109 63.5994C73.1109 63.8094 73.1109 64.0194 73.1509 64.2194C73.2109 64.5294 73.4409 64.6894 73.7509 64.6994C74.0909 64.7094 74.3508 64.5694 74.4208 64.2194C74.4708 63.9694 74.4609 63.7094 74.4609 63.4594C74.4708 60.2794 74.4709 57.0894 74.4709 53.9094Z" fill="#767A61"/>
<path d="M63.9409 34.7696C63.9409 45.5396 55.2609 54.1696 44.4509 54.1796C33.7609 54.1896 25.0009 45.3696 25.0609 34.6496C25.1309 23.9296 33.7709 15.2996 44.5609 15.3096C55.2809 15.3196 63.9409 24.0196 63.9409 34.7696ZM44.5209 17.7796C35.1909 17.7796 27.5409 25.4096 27.5409 34.7196C27.5409 44.0596 35.1509 51.7096 44.4609 51.7196C53.8109 51.7296 61.4809 44.0796 61.4809 34.7396C61.4709 25.4196 53.8309 17.7796 44.5209 17.7796Z" fill="#767A61"/>
</svg>
