<svg width="89" height="70" viewBox="0 0 89 70" fill="none" xmlns="http://www.w3.org/2000/svg">
<path d="M20.9408 2.24951C22.6108 2.51951 24.2208 2.95951 25.7108 3.78951C29.6408 5.98951 31.9808 9.30951 32.6908 13.7595C32.7808 14.3195 32.9708 14.5195 33.5708 14.5195C46.1908 14.4995 58.8108 14.5095 71.4308 14.5095C72.8508 14.5095 73.2108 14.8895 73.1608 16.3095C72.9708 22.0395 68.4008 27.1295 62.7608 27.9295C62.3008 27.9895 61.8408 28.0795 61.3808 28.0295C60.8408 27.9795 60.6508 28.2295 60.5208 28.7195C59.8708 31.1595 59.2208 33.6095 58.4208 36.0095C57.3908 39.0995 56.0908 42.0795 53.9808 44.6095C52.6408 46.2095 51.0708 47.4995 49.0008 48.0395C48.6808 48.1295 48.5708 48.2895 48.5708 48.6095C48.5808 51.6395 48.5908 54.6795 48.5608 57.7095C48.5608 58.3395 49.0008 58.2595 49.3408 58.3095C51.7708 58.6495 53.9408 59.5995 55.8708 61.0895C57.3908 62.2695 58.5608 63.7495 59.5508 65.3795C60.1208 66.3195 59.5808 67.2195 58.4408 67.2295C54.2508 67.2395 50.0508 67.2295 45.8608 67.2295C42.7508 67.2295 39.6408 67.2195 36.5308 67.2295C35.9808 67.2295 35.4808 67.1695 35.1908 66.6295C34.8908 66.0795 35.0908 65.6095 35.4008 65.1195C37.3808 61.9195 40.1108 59.6695 43.7708 58.6595C44.4008 58.4895 45.0508 58.3695 45.7008 58.2695C46.0508 58.2195 46.2008 58.0895 46.2008 57.7195C46.1908 54.6695 46.1908 51.6095 46.2008 48.5595C46.2008 48.2995 46.1408 48.1295 45.8508 48.0495C42.9808 47.2595 41.1108 45.2495 39.5508 42.8695C37.6808 40.0095 36.5708 36.8195 35.6408 33.5495C35.1708 31.8995 34.7008 30.2395 34.2608 28.5795C34.1508 28.1695 33.9808 28.0095 33.5508 28.0095C31.6108 28.0295 29.8108 27.4995 28.1108 26.5995C27.7308 26.3995 27.4708 26.4195 27.1208 26.6695C21.7008 30.4995 14.5308 29.9095 9.80082 25.2595C4.82082 20.3495 4.50082 12.1995 9.07082 6.92951C11.3008 4.35951 14.1008 2.81951 17.4608 2.31951C17.5308 2.30951 17.6108 2.27951 17.6808 2.24951H20.9408ZM26.5708 22.4995C27.3508 23.2995 28.1308 23.9195 29.0008 24.4195C30.7308 25.4095 32.6008 25.7395 34.5808 25.6795C35.6408 25.6495 35.9908 25.9595 36.2608 26.9695C36.6908 28.5495 37.1208 30.1395 37.5608 31.7195C38.3208 34.4395 39.1308 37.1395 40.4208 39.6695C41.4408 41.6695 42.6508 43.5195 44.5108 44.8495C46.3308 46.1595 48.1808 46.2095 50.0708 44.9895C50.7608 44.5495 51.3608 43.9995 51.8908 43.3895C53.2808 41.7995 54.2908 39.9795 55.1008 38.0495C56.5808 34.5295 57.4408 30.8095 58.4708 27.1495C58.8308 25.8795 59.0908 25.6395 60.4208 25.6695C61.8908 25.6995 63.3108 25.5195 64.6708 24.9595C65.9908 24.4095 67.1308 23.6295 68.1708 22.4995H26.5708ZM47.3008 16.8895V16.8995H24.8108C24.6708 16.8995 24.5408 16.9095 24.4008 16.8995C24.0608 16.8895 23.9608 17.0395 24.0308 17.3695C24.1708 18.0095 24.3608 18.6395 24.5508 19.2695C24.7408 19.9095 25.0808 20.1095 25.7608 20.1095C40.1608 20.0895 54.5508 20.0895 68.9508 20.0895C69.1108 20.0895 69.2608 20.0795 69.4108 20.0895C69.7008 20.1095 69.8708 19.9795 69.9808 19.7095C70.2308 19.0795 70.4408 18.4395 70.5708 17.7695C70.7308 16.8995 70.7308 16.8895 69.8508 16.8895C62.3308 16.8895 54.8208 16.8895 47.3008 16.8895ZM38.5308 64.8495C38.8008 64.8595 38.9308 64.8795 39.0608 64.8795C44.5908 64.8795 50.1108 64.8795 55.6408 64.8795C55.7008 64.8795 55.7608 64.8795 55.8108 64.8795C55.9208 64.8695 56.0708 64.9195 56.1308 64.7995C56.2108 64.6495 56.0508 64.5595 55.9808 64.4595C55.9208 64.3795 55.8508 64.3095 55.7908 64.2395C52.5108 60.6895 47.3708 59.5795 42.9308 61.4795C41.2108 62.1995 39.7708 63.2995 38.5308 64.8495ZM16.3208 14.5095C16.3408 14.4695 16.3708 14.4195 16.3908 14.3795C14.5608 12.5595 12.7308 10.7395 10.9008 8.91951C10.6908 8.70951 10.5808 8.81951 10.4408 8.99951C9.32082 10.4895 8.61082 12.1595 8.32082 14.0095C8.27082 14.3295 8.35082 14.5295 8.74082 14.5295C11.2708 14.4995 13.8008 14.5095 16.3208 14.5095ZM20.5108 21.8195C20.5108 23.2495 20.5308 24.6795 20.5008 26.1095C20.4908 26.6195 20.6808 26.7695 21.1508 26.6795C22.5708 26.4195 23.9008 25.9395 25.1408 25.1795C25.5008 24.9595 25.5408 24.8095 25.2208 24.4995C23.2008 22.5495 22.0408 20.1595 21.6308 17.4095C21.5608 16.9095 21.3208 16.8895 20.9408 16.8895C20.5008 16.8895 20.5108 17.1795 20.5108 17.4795C20.5108 18.9195 20.5108 20.3695 20.5108 21.8195ZM22.2408 14.2695C22.2908 14.3495 22.3508 14.4195 22.4008 14.4995C24.9408 14.4995 27.4908 14.4995 30.0308 14.4995C30.3808 14.4995 30.3808 14.3195 30.3408 14.0395C30.0708 12.2295 29.3708 10.5995 28.3208 9.10951C28.0508 8.72951 27.8808 8.81951 27.6108 9.08951C26.0308 10.6795 24.4508 12.2595 22.8608 13.8395C22.6808 14.0195 22.4508 14.1295 22.2408 14.2695ZM20.5108 12.6195C20.5608 12.6395 20.6008 12.6595 20.6508 12.6695C22.4508 10.8695 24.2508 9.07951 26.0608 7.27951C26.3108 7.03951 26.1808 6.88951 25.9608 6.72951C24.4808 5.66951 22.8508 4.95951 21.0408 4.67951C20.6008 4.60951 20.5108 4.75951 20.5208 5.15951C20.5308 7.43951 20.5308 9.71951 20.5308 11.9895V12.6195H20.5108ZM18.0808 12.6295C18.1008 12.5595 18.1208 12.4895 18.1208 12.4195C18.1208 9.96951 18.1208 7.51951 18.1308 5.06951C18.1308 4.66951 17.9508 4.63951 17.6208 4.68951C15.8708 4.94951 14.2908 5.61951 12.8408 6.62951C12.4408 6.90951 12.3808 7.08951 12.7608 7.45951C14.4208 9.07951 16.0408 10.7295 17.6808 12.3595C17.8008 12.4695 17.8708 12.6195 18.0808 12.6295ZM18.0408 18.6795C16.1908 20.5195 14.4108 22.3095 12.6208 24.0895C12.3208 24.3895 12.5608 24.5195 12.7708 24.6695C14.1508 25.6795 15.6808 26.3395 17.3608 26.6495C18.0508 26.7795 18.1408 26.6995 18.1408 26.0095C18.1408 23.8895 18.1408 21.7595 18.1408 19.6395C18.1308 19.3495 18.1808 19.0595 18.0408 18.6795ZM16.3108 16.9695C16.1908 16.9295 16.1608 16.8995 16.1208 16.8995C13.6708 16.8995 11.2108 16.8995 8.76082 16.8895C8.28082 16.8895 8.29082 17.1795 8.35082 17.5095C8.65082 19.2295 9.31082 20.7995 10.3208 22.2295C10.5908 22.6095 10.7608 22.5895 11.0708 22.2795C12.7108 20.6195 14.3708 18.9695 16.0208 17.3195C16.1208 17.2195 16.1908 17.1095 16.3108 16.9695Z" fill="#767A61"/>
</svg>
