<svg width="230" height="248" viewBox="0 0 230 248" fill="none" xmlns="http://www.w3.org/2000/svg">
<g clip-path="url(#clip0_88_60)">
<path d="M53.2603 53.6094L94.5349 128.982C102.387 128.135 110.217 127.074 118.063 126.205C120.839 125.899 130 126.014 131.495 124.325C147.281 90.4074 164.562 57.0962 185.046 25.7799C159.694 30.1139 130.323 31.83 106.91 43.0285C90.2804 50.9805 73.7772 70.4589 84.887 89.4509C85.7412 90.9157 90.8335 95.911 87.9588 96.7198C83.3867 98.0096 78.8147 83.8818 78.4861 80.5589C73.6074 31.5841 155.023 27.9387 187.373 21.8176C194.206 13.5376 203.055 0.956424 214.827 0.103833C218.485 -0.163968 222.263 -0.245948 222.788 4.20283C224.097 15.2592 211.761 19.4401 203.213 21.8012C200.109 22.6592 190.554 23.9217 188.944 25.5722C187.334 27.2228 183.868 33.7976 182.576 36.1367C179.143 42.3727 175.88 49.4721 172.923 55.9704C162.93 77.941 154.832 100.819 145.134 122.926C151.415 122.237 157.739 121.188 163.762 119.286L196.259 53.6148H229.89C230 53.6148 229.819 55.4074 229.89 55.7955C222.723 55.402 216.481 58.2549 213.869 65.1849C213.294 66.7152 211.843 72.6833 211.843 74.0825V92.6372C211.843 92.7793 211.065 93.3696 211.301 93.9981C212.237 94.8835 215.632 89.0629 216.114 88.1611C218.95 82.8762 220.943 76.1429 221.617 70.1857C221.989 66.8792 220.056 60.0256 224.968 61.2499V70.8033C224.968 80.0888 217.565 93.1455 211.854 100.289L211.821 226.379C212.911 236.091 215.03 243.912 225.844 245.677C228.428 246.098 230.536 244.475 229.89 247.918H178.491C178.097 244.775 181.076 246.016 183.08 245.683C191.523 244.278 195.986 236.763 195.986 228.543V112.017C186.152 116.717 175.929 120.204 165.334 122.768L123.665 207.387C121.831 208.125 119.618 208.6 118.091 206.955C114.915 203.529 112.106 194.844 109.187 190.745L108.224 190.068C95.3508 208.027 81.4429 226.658 61.4901 237.299C60.5099 237.824 55.6531 239.48 55.4505 239.736C54.8592 240.502 56.2445 241.157 56.7099 241.474C58.5333 242.71 62.6783 244.278 64.8575 244.808C66.6425 245.24 73.6731 245.732 74.0564 245.994C74.6697 246.415 74.7956 247.721 74.5876 247.913C74.374 248.115 70.7711 247.913 69.9388 247.913H7.33152C6.49376 244.42 9.70243 246.038 12.4566 245.661C14.6414 245.366 16.8863 244.71 18.9561 243.961C20.0074 243.584 26.9997 240.671 25.921 239.184C-2.21782 228.358 -5.97951 191.341 7.59435 167.665C14.5428 155.549 26.704 147.504 39.0677 141.656L39.013 67.5514C34.7092 60.523 26.2221 55.5659 17.7186 55.7846C17.7953 55.3965 17.6146 53.6039 17.7186 53.6039H53.2603V53.6094ZM217.11 11.9363C219.18 9.83758 221.513 3.86398 217.609 3.3721C212.85 2.77638 207.928 5.31775 204.232 8.08321C202.595 9.30744 192.065 19.4019 193.253 20.8611C200.235 18.9209 211.887 17.2267 217.11 11.9363ZM196.522 61.7964L194.781 63.0534L167.546 118.554C177.462 116.515 187.028 112.903 195.893 108.104L196.528 61.8019L196.522 61.7964ZM42.3257 140.388L76.7668 130.84L42.3257 71.6231V140.393V140.388ZM128.713 190.598L160.975 123.467C155.927 125.309 149.378 125.025 144.428 126.32C143.749 126.5 143.141 126.752 142.681 127.304C135.585 142.612 128.007 157.724 119.301 172.185C118.025 175.431 121.748 179.088 123.347 182.044C124.508 184.192 125.855 187.974 127.164 189.696C127.487 190.122 128.051 191.09 128.713 190.598ZM113.404 162.763L129.036 129.49L128.439 128.38L96.4623 132.206C96.32 132.807 96.5664 133.266 96.7635 133.802C99.9448 142.645 108.552 152.608 111.86 161.861C112.062 162.457 112.927 163.118 113.409 162.763H113.404ZM78.8749 135.021C77.2925 134.032 58.9439 138.579 55.8776 139.448C53.9667 139.994 42.7747 143.454 42.3969 144.552L42.3038 209.453C42.7254 216.951 45.1565 228.254 49.526 234.446C50.8511 236.321 51.4589 237.184 53.8243 236.763C65.1477 234.752 77.8893 220.575 84.6461 211.83C91.9395 202.386 98.1543 192.133 103.482 181.454L78.8749 135.021ZM39.0404 145.848C24.8587 151.471 12.2376 162.255 6.92085 176.82C-0.356136 196.752 2.86896 223.69 23.2434 234.473C27.8703 236.922 28.719 238.059 31.6101 233.664C36.7461 225.865 37.8576 216.285 39.0349 207.234V145.842L39.0404 145.848Z" fill="#746448"/>
</g>
<defs>
<clipPath id="clip0_88_60">
<rect width="230" height="248" fill="white"/>
</clipPath>
</defs>
</svg>
