<svg width="388" height="305" viewBox="0 0 388 305" fill="none" xmlns="http://www.w3.org/2000/svg">
<path d="M46.0632 63.544C48.2472 63.544 48.7512 65.056 49.2552 71.44C49.5912 76.648 49.2552 95.464 48.4152 115.456C48.2472 121.168 47.9112 130.072 47.7432 135.448C47.5752 140.656 47.4072 147.544 47.2392 150.736C47.0712 154.096 47.2392 156.448 47.4072 156.448C47.4072 156.448 48.5832 154.264 49.9272 151.408C57.3192 135.112 64.7112 119.992 73.6152 102.856C76.3032 97.984 79.9992 90.928 82.0152 87.064C87.8952 75.808 91.5912 69.76 93.6072 68.584C95.7912 67.24 97.8072 68.08 98.4792 70.432C99.1512 72.784 99.1512 81.52 98.3112 91.432C96.4632 114.952 96.1272 121.168 95.4552 138.304C95.1192 150.232 95.2872 181.984 95.7912 188.032C96.4632 196.096 97.4712 199.792 99.3192 200.968C101.167 202.312 100.495 202.816 98.4792 201.64C94.9512 199.96 93.1032 191.896 92.0952 173.08C91.5912 165.52 91.5912 135.952 92.0952 124.024C92.5992 111.088 93.4392 98.152 94.7832 85.72C95.4552 80.512 95.7912 72.112 95.2872 71.104C95.1192 70.768 94.4472 71.104 93.2712 72.112C90.4152 75.304 87.7272 79.672 80.1672 94.12C69.4152 114.616 62.8632 128.392 53.7912 150.232C51.6072 155.104 49.5912 159.808 49.2552 160.48C47.4072 163.672 44.5512 163.672 43.5432 160.144C43.0392 158.464 43.0392 134.776 43.5432 124.192C43.8792 116.8 44.5512 100.84 44.8872 92.104C45.3912 81.52 45.5592 70.432 45.3912 68.92L45.2232 67.576L44.2152 69.424C41.0232 75.136 36.4872 85.888 31.6152 99.832C27.0792 112.936 20.6952 135.112 17.8392 148.384L16.9992 152.08L17.3352 170.392C17.6712 193.576 17.1672 203.32 15.8232 206.848C14.8152 209.032 12.7992 209.872 11.6232 208.528C10.6152 207.52 10.4472 207.016 9.94319 204.496C8.43119 197.44 9.27119 182.488 11.9592 166.864L12.7992 161.992L12.6312 151.072C11.7912 114.784 10.9512 87.904 10.7832 87.736C10.7832 87.736 10.2792 88.912 9.94319 90.424C8.26319 95.632 5.23919 105.04 5.07119 105.376C4.39919 106.048 3.89519 105.376 3.89519 104.032C3.89519 102.184 4.39919 99.832 6.58319 89.08C8.93519 78.496 9.27119 77.152 10.1112 76.144C11.4552 74.968 13.6392 75.64 14.3112 77.656C14.9832 79.84 15.4872 88.408 15.9912 104.368C16.4952 131.416 16.9992 143.512 16.9992 143.68C17.1672 143.68 17.3352 143.176 17.3352 142.672C17.5032 142 18.5112 138.304 19.5192 134.272C25.0632 114.28 31.2792 95.8 39.1752 75.808C43.0392 66.064 44.5512 63.544 46.0632 63.544ZM12.9672 175.768C12.9672 175.6 12.9672 175.768 12.7992 175.936C11.7912 181.816 11.1192 195.256 11.6232 199.96C12.1272 203.152 12.6312 205.504 12.9672 205.504C12.9672 205.504 13.3032 204.664 13.3032 203.656C13.8072 200.128 13.3032 176.44 12.9672 175.768ZM112.955 134.272C114.299 134.104 115.307 134.608 115.811 135.784C117.323 138.976 111.275 147.208 107.579 147.208C106.571 147.208 106.571 147.208 106.571 148.72C106.571 150.736 107.411 151.912 108.923 152.752C110.771 153.76 112.619 153.76 115.139 153.088C118.499 152.248 121.019 150.736 127.067 146.032C132.947 141.664 134.123 141.328 129.923 145.36C126.899 148.384 123.371 151.408 121.019 152.92C116.483 155.944 111.947 157.288 108.923 156.448C102.707 154.768 100.859 148.552 104.387 141.496C106.403 137.296 110.267 134.44 112.955 134.272ZM113.795 137.464C113.627 137.464 113.459 137.464 113.291 137.464C111.611 137.968 108.587 141.16 107.579 143.68L107.243 144.688L107.915 144.52C108.419 144.352 109.427 144.016 110.099 143.512C111.779 142.504 113.459 140.32 113.795 138.808C114.131 137.632 114.131 137.464 113.795 137.464ZM135.185 164.848C133.001 164.008 131.825 161.656 130.817 156.112C130.145 152.584 129.977 139.312 130.481 132.088C131.321 116.632 133.841 93.28 134.849 90.256C135.353 88.576 137.369 88.072 138.209 89.416C138.545 90.088 138.545 90.76 137.537 99.832C135.353 120.16 134.177 136.96 134.177 147.04C134.177 160.648 135.353 163.84 139.049 161.152C141.569 159.304 149.129 150.568 154.337 143.344C155.345 142 156.185 140.992 156.353 140.992C156.857 141.496 152.489 148.384 146.441 156.112C141.905 162.16 140.057 164.176 138.377 164.848C137.201 165.352 136.697 165.352 135.185 164.848ZM154.614 126.04C155.118 125.704 155.454 125.704 155.79 125.704C156.462 125.704 156.966 126.04 157.134 126.88C157.638 128.392 156.63 130.744 155.454 130.744C155.118 130.744 154.782 130.576 154.614 130.24C153.438 129.232 153.606 126.88 154.614 126.04ZM155.958 135.28C156.126 135.28 156.294 135.28 156.462 135.28C157.638 135.784 157.974 136.96 157.47 141.328C156.966 148.888 157.638 153.76 159.318 154.432C160.83 154.936 164.022 152.416 170.07 146.032C172.422 143.512 174.606 141.496 174.606 141.664C174.942 141.832 173.43 143.68 169.566 148.384C165.198 153.592 162.678 156.112 161.166 156.616C160.158 157.12 158.478 157.288 157.638 156.952C156.798 156.616 155.454 155.272 154.95 154.096C153.942 152.248 153.606 150.232 153.269 147.04C153.101 143.848 153.774 136.792 154.446 136.12C154.95 135.448 155.454 135.28 155.958 135.28Z" fill="#746448"/>
<path d="M266.151 157.4H266.319H266.151C266.487 157.4 266.823 157.4 267.159 157.4C271.863 158.408 274.551 170.504 275.895 197.552C276.231 205.616 276.231 227.96 275.895 234.176C275.727 236.696 275.727 238.712 275.727 238.712C275.895 238.712 279.255 238.376 283.455 237.872C291.687 237.032 301.599 236.192 302.439 236.528C303.279 236.864 302.607 237.032 299.247 237.368C289.671 238.544 276.231 240.728 275.727 241.064C275.727 241.232 275.223 243.92 275.055 247.28C274.383 254 273.207 261.896 272.367 266.096C270.855 273.824 271.023 273.152 268.839 279.704C265.143 290.96 260.103 298.352 253.551 301.88C250.191 303.56 246.663 304.232 241.791 304.232C239.607 304.232 236.919 304.064 235.911 303.896C230.367 302.72 224.655 300.536 216.255 296.168C202.647 289.28 194.751 282.56 193.071 276.848C191.223 270.8 194.583 265.088 203.487 259.208C210.879 254.336 221.463 249.968 233.895 246.944C239.775 245.432 255.399 242.24 264.975 240.728C268.167 240.056 270.687 239.552 270.855 239.552C271.695 238.712 272.031 200.576 271.359 188.312C270.351 172.52 269.007 162.944 266.991 160.592C266.151 159.416 265.143 159.752 263.463 161.6C260.943 163.952 252.879 176.888 246.999 187.64C243.471 193.856 242.967 194.696 242.127 194.696C240.111 194.696 239.439 193.184 240.615 190.832C241.959 187.64 246.663 180.752 258.423 164.288C262.119 159.248 264.135 157.4 266.151 157.4ZM270.351 241.904C269.511 241.904 260.271 243.752 252.207 245.432C230.367 249.968 214.407 255.68 204.663 262.4C201.471 264.584 197.607 268.28 196.767 270.128C194.247 275.336 196.431 279.536 204.327 285.416C212.727 291.8 228.015 298.856 236.079 300.2C238.431 300.704 243.807 300.536 246.159 300.032C249.015 299.528 252.543 297.848 254.559 296.168C256.575 294.32 258.927 290.96 260.943 286.928C263.799 281.72 264.807 278.528 267.159 268.784C268.167 264.92 269.343 256.856 270.015 250.64C270.855 242.24 270.855 241.904 270.351 241.904ZM311.682 225.776C313.026 225.944 314.202 226.784 315.21 228.296C316.05 229.472 316.218 229.808 316.218 231.656C316.218 233.336 316.218 233.504 316.554 232.832C317.058 231.992 317.898 231.656 318.738 232.328C319.746 232.832 319.746 233.84 319.074 237.368C318.57 240.056 318.57 243.584 319.242 244.088C320.082 244.928 323.778 242.072 329.154 236.36C330.666 234.512 332.178 233.168 332.346 233C333.522 232.664 330.162 237.536 326.298 241.736C322.77 245.768 321.09 246.944 319.41 247.112C316.722 247.448 315.21 245.264 314.874 240.728L314.706 238.04L311.682 241.568C308.154 245.6 305.97 247.28 303.954 247.448C302.946 247.616 302.274 247.448 301.602 246.944C299.25 245.768 298.578 241.904 299.922 237.872C301.602 233.336 305.634 227.96 308.826 226.448C309.834 226.112 310.842 225.776 311.682 225.776ZM313.026 228.8C312.69 228.464 312.354 228.128 312.018 228.128C311.346 228.128 310.674 228.464 309.834 229.304C305.802 233 302.274 241.568 303.786 244.088C303.954 244.592 305.634 244.088 307.314 243.08C308.154 242.576 309.834 241.232 311.178 240.056L313.53 237.872L312.522 237.704C311.01 237.536 311.01 236.36 312.69 233.168C314.202 230.48 314.202 229.976 313.026 228.8ZM330.305 255.344C329.297 253.664 329.129 250.808 329.129 233.168C329.129 223.76 329.297 213.176 329.465 209.48C329.801 205.952 329.969 198.56 330.137 193.016C330.305 183.944 330.305 183.104 330.809 182.432C331.985 180.92 334.001 181.928 334.337 184.28C334.505 185.12 334.505 188.816 334.337 192.848C334.001 196.88 333.833 203.264 333.665 206.96C333.497 210.656 333.161 216.872 333.161 220.736C332.993 224.6 332.657 229.136 332.657 230.816L332.489 234.008L333.833 231.992C335.681 229.64 337.361 227.96 340.385 226.112C343.241 224.096 344.753 223.592 345.761 223.928C346.265 224.264 346.433 224.432 346.433 225.44C346.265 226.448 346.097 226.616 342.905 228.968C339.209 231.992 337.697 233.504 335.849 236.528C334.169 238.88 333.833 240.728 334.673 242.24C335.849 244.424 338.873 244.592 343.073 242.912C345.425 241.904 351.977 237.704 356.513 234.344C359.201 232.16 359.537 231.992 359.537 232.496C359.537 234.008 348.281 242.744 342.737 245.432C340.049 246.776 339.881 246.776 337.361 246.776C335.009 246.776 334.841 246.776 333.497 245.936C332.153 244.928 331.985 244.928 331.985 246.944C331.985 249.128 331.313 256.016 330.977 256.016C330.809 256.016 330.641 255.68 330.305 255.344ZM365.939 225.272C367.283 225.104 368.291 225.608 368.795 226.784C370.307 229.976 364.259 238.208 360.563 238.208C359.555 238.208 359.555 238.208 359.555 239.72C359.555 241.736 360.395 242.912 361.907 243.752C363.755 244.76 365.603 244.76 368.123 244.088C371.483 243.248 374.003 241.736 380.051 237.032C385.931 232.664 387.107 232.328 382.907 236.36C379.883 239.384 376.355 242.408 374.003 243.92C369.467 246.944 364.931 248.288 361.907 247.448C355.691 245.768 353.843 239.552 357.371 232.496C359.387 228.296 363.251 225.44 365.939 225.272ZM366.779 228.464C366.611 228.464 366.443 228.464 366.275 228.464C364.595 228.968 361.571 232.16 360.563 234.68L360.227 235.688L360.899 235.52C361.403 235.352 362.411 235.016 363.083 234.512C364.763 233.504 366.443 231.32 366.779 229.808C367.115 228.632 367.115 228.464 366.779 228.464Z" fill="#746448"/>
<path d="M215.763 142.136C219.123 142.136 221.475 143.312 221.979 145.496C222.315 146.336 222.315 146.672 221.643 148.016C220.299 150.536 216.939 153.392 206.859 160.448C197.619 166.832 194.259 169.352 194.259 169.688C194.259 170.36 195.267 173.216 196.443 175.568C198.123 178.76 200.643 182.624 203.331 185.648C205.515 188.336 211.227 194.048 214.251 196.736C216.267 198.416 216.267 198.416 217.779 194.72C218.955 191.528 219.123 189.176 218.283 186.656C217.443 184.136 216.435 182.456 215.595 182.288C215.091 182.288 214.923 181.952 214.923 181.448C214.587 180.104 216.099 179.6 217.779 180.608C219.963 181.952 221.643 185.648 221.643 189.008C221.643 191.528 221.139 193.208 219.291 197.072C218.115 199.424 217.947 199.76 218.283 200.096C218.619 200.264 220.467 201.944 222.651 203.624C227.523 207.656 231.723 210.68 235.083 212.36C237.603 213.704 238.947 214.88 238.947 215.888C238.947 216.392 237.771 217.4 237.267 217.4C237.099 217.4 235.923 216.896 234.915 216.392C231.555 214.544 227.019 211.184 220.467 205.472C215.931 201.608 216.435 201.776 215.595 202.784C213.915 204.968 210.387 208.328 207.867 210.008C197.283 217.064 186.363 217.736 177.459 211.856C167.883 205.472 166.203 194.048 173.259 183.632C175.947 179.432 181.659 173.72 187.875 168.848L191.235 165.992V164.312C191.235 161.624 192.075 158.768 193.587 155.576C194.763 153.224 195.267 152.552 197.787 150.032C201.315 146.504 204.171 144.824 208.707 143.312C211.395 142.472 213.747 142.136 215.763 142.136ZM219.291 144.152C218.619 143.648 217.947 143.648 214.755 143.648C211.563 143.648 210.891 143.816 208.539 144.656C205.011 145.832 202.323 147.512 199.635 150.032C197.283 152.552 195.435 155.408 194.427 158.096C193.755 160.112 193.251 163.64 193.419 163.976C193.587 164.144 195.603 162.968 198.123 161.288C200.475 159.776 204.171 157.424 206.187 156.08C212.235 152.552 215.931 149.864 218.115 147.848C220.299 145.664 220.467 144.992 219.291 144.152ZM192.243 171.368C191.907 171.2 191.067 171.872 189.387 173.216C184.683 177.248 179.307 182.792 176.787 186.488C172.419 193.04 171.579 200.096 174.603 204.968C176.955 208.496 181.995 211.688 186.867 212.696C189.555 213.2 194.595 213.032 197.283 212.192C203.331 210.512 209.211 206.816 212.907 202.448L214.419 200.6L208.371 194.552C201.987 188.168 198.627 183.968 195.771 178.928C194.259 176.576 192.411 172.376 192.411 171.704C192.411 171.536 192.411 171.368 192.243 171.368Z" fill="#746448"/>
</svg>
